%TF.GenerationSoftware,KiCad,Pcbnew,10.0.1*%
%TF.CreationDate,2026-05-17T18:53:35+05:30*%
%TF.ProjectId,marcopad workshop,6d617263-6f70-4616-9420-776f726b7368,rev?*%
%TF.SameCoordinates,Original*%
%TF.FileFunction,Copper,L2,Bot*%
%TF.FilePolarity,Positive*%
%FSLAX46Y46*%
G04 Gerber Fmt 4.6, Leading zero omitted, Abs format (unit mm)*
G04 Created by KiCad (PCBNEW 10.0.1) date 2026-05-17 18:53:35*
%MOMM*%
%LPD*%
G01*
G04 APERTURE LIST*
G04 Aperture macros list*
%AMRoundRect*
0 Rectangle with rounded corners*
0 $1 Rounding radius*
0 $2 $3 $4 $5 $6 $7 $8 $9 X,Y pos of 4 corners*
0 Add a 4 corners polygon primitive as box body*
4,1,4,$2,$3,$4,$5,$6,$7,$8,$9,$2,$3,0*
0 Add four circle primitives for the rounded corners*
1,1,$1+$1,$2,$3*
1,1,$1+$1,$4,$5*
1,1,$1+$1,$6,$7*
1,1,$1+$1,$8,$9*
0 Add four rect primitives between the rounded corners*
20,1,$1+$1,$2,$3,$4,$5,0*
20,1,$1+$1,$4,$5,$6,$7,0*
20,1,$1+$1,$6,$7,$8,$9,0*
20,1,$1+$1,$8,$9,$2,$3,0*%
G04 Aperture macros list end*
%TA.AperFunction,ComponentPad*%
%ADD10C,2.200000*%
%TD*%
%TA.AperFunction,ComponentPad*%
%ADD11RoundRect,0.400000X0.900000X0.400000X-0.900000X0.400000X-0.900000X-0.400000X0.900000X-0.400000X0*%
%TD*%
%TA.AperFunction,ComponentPad*%
%ADD12RoundRect,0.400050X0.899950X0.400050X-0.899950X0.400050X-0.899950X-0.400050X0.899950X-0.400050X0*%
%TD*%
%TA.AperFunction,ComponentPad*%
%ADD13RoundRect,0.400000X0.400000X0.900000X-0.400000X0.900000X-0.400000X-0.900000X0.400000X-0.900000X0*%
%TD*%
%TA.AperFunction,ComponentPad*%
%ADD14RoundRect,0.393700X0.393700X0.906300X-0.393700X0.906300X-0.393700X-0.906300X0.393700X-0.906300X0*%
%TD*%
%TA.AperFunction,SMDPad,CuDef*%
%ADD15RoundRect,0.250000X0.350000X0.450000X-0.350000X0.450000X-0.350000X-0.450000X0.350000X-0.450000X0*%
%TD*%
%TA.AperFunction,SMDPad,CuDef*%
%ADD16RoundRect,0.090000X0.660000X0.360000X-0.660000X0.360000X-0.660000X-0.360000X0.660000X-0.360000X0*%
%TD*%
%TA.AperFunction,SMDPad,CuDef*%
%ADD17RoundRect,0.250000X1.100000X-0.412500X1.100000X0.412500X-1.100000X0.412500X-1.100000X-0.412500X0*%
%TD*%
%TA.AperFunction,ViaPad*%
%ADD18C,0.600000*%
%TD*%
%TA.AperFunction,Conductor*%
%ADD19C,0.200000*%
%TD*%
G04 APERTURE END LIST*
D10*
%TO.P,SW3,1,1_1*%
%TO.N,GND*%
X233320000Y-93920000D03*
%TO.P,SW3,2,2_2*%
%TO.N,Net-(RZ1-GP0)*%
X226970000Y-96460000D03*
%TD*%
%TO.P,SW2,1,1_1*%
%TO.N,GND*%
X212440000Y-93820000D03*
%TO.P,SW2,2,2_2*%
%TO.N,Net-(RZ1-GP2)*%
X206090000Y-96360000D03*
%TD*%
%TO.P,SW1,1,1_1*%
%TO.N,GND*%
X192440000Y-94020000D03*
%TO.P,SW1,2,2_2*%
%TO.N,Net-(RZ1-GP1)*%
X186090000Y-96560000D03*
%TD*%
D11*
%TO.P,RZ1,1,GP0_1*%
%TO.N,Net-(RZ1-GP0)*%
X244235000Y-88365000D03*
%TO.P,RZ1,2,GP1_2*%
%TO.N,Net-(RZ1-GP1)*%
X244235000Y-90905000D03*
%TO.P,RZ1,3,GP2_3*%
%TO.N,Net-(RZ1-GP2)*%
X244235000Y-93445000D03*
%TO.P,RZ1,4,GP3_4*%
%TO.N,Net-(RZ1-GP3)*%
X244235000Y-95985000D03*
%TO.P,RZ1,5,GP4_5*%
%TO.N,unconnected-(RZ1-GP4-Pad5)*%
X244235000Y-98525000D03*
D12*
%TO.P,RZ1,6,GP5_6*%
%TO.N,unconnected-(RZ1-GP5-Pad6)*%
X244235000Y-101065000D03*
%TO.P,RZ1,7,GP6_7*%
%TO.N,unconnected-(RZ1-GP6-Pad7)*%
X244235000Y-103605000D03*
%TO.P,RZ1,8,GP7_8*%
%TO.N,unconnected-(RZ1-GP7-Pad8)*%
X244235000Y-106145000D03*
%TO.P,RZ1,9,GP8_9*%
%TO.N,unconnected-(RZ1-GP8-Pad9)*%
X244235000Y-108685000D03*
D13*
%TO.P,RZ1,10,GP9_10*%
%TO.N,unconnected-(RZ1-GP9-Pad10)*%
X247375000Y-109495000D03*
D14*
%TO.P,RZ1,11,GP10_11*%
%TO.N,unconnected-(RZ1-GP10-Pad11)*%
X249915000Y-109495000D03*
%TO.P,RZ1,12,GP11_12*%
%TO.N,unconnected-(RZ1-GP11-Pad12)*%
X252455000Y-109495000D03*
%TO.P,RZ1,13,GP12_13*%
%TO.N,unconnected-(RZ1-GP12-Pad13)*%
X254995000Y-109495000D03*
%TO.P,RZ1,14,GP13_14*%
%TO.N,unconnected-(RZ1-GP13-Pad14)*%
X257535000Y-109495000D03*
D12*
%TO.P,RZ1,15,GP14_15*%
%TO.N,unconnected-(RZ1-GP14-Pad15)*%
X260675000Y-108685000D03*
%TO.P,RZ1,16,GP15_16*%
%TO.N,unconnected-(RZ1-GP15-Pad16)*%
X260675000Y-106145000D03*
%TO.P,RZ1,17,GP26_17*%
%TO.N,unconnected-(RZ1-GP26-Pad17)*%
X260675000Y-103605000D03*
%TO.P,RZ1,18,GP27_18*%
%TO.N,unconnected-(RZ1-GP27-Pad18)*%
X260675000Y-101065000D03*
%TO.P,RZ1,19,GP28_19*%
%TO.N,unconnected-(RZ1-GP28-Pad19)*%
X260675000Y-98525000D03*
%TO.P,RZ1,20,GP29_20*%
%TO.N,unconnected-(RZ1-GP29-Pad20)*%
X260675000Y-95985000D03*
%TO.P,RZ1,21,3V3_21*%
%TO.N,unconnected-(RZ1-3V3-Pad21)*%
X260675000Y-93445000D03*
%TO.P,RZ1,22,GND_22*%
%TO.N,GND*%
X260675000Y-90905000D03*
%TO.P,RZ1,23,5V_23*%
%TO.N,+5V*%
X260675000Y-88365000D03*
%TD*%
D15*
%TO.P,R1,1*%
%TO.N,Net-(RZ1-GP3)*%
X238100000Y-109900000D03*
%TO.P,R1,2*%
%TO.N,Net-(D1-DIN)*%
X236100000Y-109900000D03*
%TD*%
D16*
%TO.P,D2,1,VDD_1*%
%TO.N,+5V*%
X202350000Y-109150000D03*
%TO.P,D2,2,DOUT_2*%
%TO.N,unconnected-(D2-DOUT-Pad2)*%
X202350000Y-112450000D03*
%TO.P,D2,3,VSS_3*%
%TO.N,GND*%
X197450000Y-112450000D03*
%TO.P,D2,4,DIN_4*%
%TO.N,Net-(D1-DOUT)*%
X197450000Y-109150000D03*
%TD*%
%TO.P,D1,1,VDD_1*%
%TO.N,+5V*%
X221900000Y-108100000D03*
%TO.P,D1,2,DOUT_2*%
%TO.N,Net-(D1-DOUT)*%
X221900000Y-111400000D03*
%TO.P,D1,3,VSS_3*%
%TO.N,GND*%
X217000000Y-111400000D03*
%TO.P,D1,4,DIN_4*%
%TO.N,Net-(D1-DIN)*%
X217000000Y-108100000D03*
%TD*%
D17*
%TO.P,C2,1*%
%TO.N,GND*%
X207600000Y-112862500D03*
%TO.P,C2,2*%
%TO.N,+5V*%
X207600000Y-109737500D03*
%TD*%
%TO.P,C1,1*%
%TO.N,GND*%
X226500000Y-111400000D03*
%TO.P,C1,2*%
%TO.N,+5V*%
X226500000Y-108275000D03*
%TD*%
D18*
%TO.N,Net-(RZ1-GP3)*%
X238200000Y-107700000D03*
%TO.N,Net-(RZ1-GP2)*%
X239500000Y-93900000D03*
X222700000Y-92400000D03*
%TO.N,Net-(RZ1-GP1)*%
X230300000Y-91600000D03*
%TD*%
%TO.N,Net-(D1-DOUT)*%
D19*
X210000000Y-107500000D02*
X197700000Y-107500000D01*
X212400000Y-109900000D02*
X210000000Y-107500000D01*
X219600000Y-109900000D02*
X212400000Y-109900000D01*
X197450000Y-107750000D02*
X197450000Y-109150000D01*
X221900000Y-111400000D02*
X221100000Y-111400000D01*
X221100000Y-111400000D02*
X219600000Y-109900000D01*
X197700000Y-107500000D02*
X197450000Y-107750000D01*
%TO.N,Net-(D1-DIN)*%
X230500000Y-109900000D02*
X226700000Y-106100000D01*
X226700000Y-106100000D02*
X219000000Y-106100000D01*
X236100000Y-109900000D02*
X230500000Y-109900000D01*
X219000000Y-106100000D02*
X217000000Y-108100000D01*
%TO.N,Net-(RZ1-GP3)*%
X238100000Y-109900000D02*
X238100000Y-107800000D01*
X238100000Y-107800000D02*
X238200000Y-107700000D01*
%TO.N,Net-(RZ1-GP2)*%
X239500000Y-93900000D02*
X238000000Y-92400000D01*
X238000000Y-92400000D02*
X222700000Y-92400000D01*
%TO.N,Net-(RZ1-GP1)*%
X230300000Y-91600000D02*
X187900000Y-91600000D01*
X186090000Y-93410000D02*
X186090000Y-96560000D01*
X187900000Y-91600000D02*
X186090000Y-93410000D01*
%TD*%
%TA.AperFunction,Conductor*%
%TO.N,GND*%
G36*
X263312515Y-83638783D02*
G01*
X263358270Y-83691587D01*
X263369476Y-83743098D01*
X263369476Y-113575500D01*
X263349791Y-113642539D01*
X263296987Y-113688294D01*
X263245476Y-113699500D01*
X209521159Y-113699500D01*
X209454120Y-113679815D01*
X209408365Y-113627011D01*
X209398421Y-113557853D01*
X209403453Y-113536496D01*
X209439505Y-113427697D01*
X209439506Y-113427690D01*
X209449999Y-113324986D01*
X209450000Y-113324973D01*
X209450000Y-113112500D01*
X205750001Y-113112500D01*
X205750001Y-113324986D01*
X205760494Y-113427697D01*
X205796547Y-113536496D01*
X205798949Y-113606324D01*
X205763217Y-113666366D01*
X205700697Y-113697559D01*
X205678841Y-113699500D01*
X180224500Y-113699500D01*
X180157461Y-113679815D01*
X180111706Y-113627011D01*
X180100500Y-113575500D01*
X180100500Y-112848670D01*
X196200000Y-112848670D01*
X196215185Y-112964019D01*
X196215187Y-112964024D01*
X196274633Y-113107541D01*
X196274633Y-113107542D01*
X196369207Y-113230792D01*
X196492458Y-113325366D01*
X196635975Y-113384812D01*
X196635980Y-113384814D01*
X196751329Y-113400000D01*
X197200000Y-113400000D01*
X197700000Y-113400000D01*
X198148671Y-113400000D01*
X198264019Y-113384814D01*
X198264024Y-113384812D01*
X198407541Y-113325366D01*
X198407542Y-113325366D01*
X198530792Y-113230792D01*
X198625366Y-113107542D01*
X198625366Y-113107541D01*
X198684812Y-112964024D01*
X198684814Y-112964019D01*
X198700000Y-112848670D01*
X198700000Y-112700000D01*
X197700000Y-112700000D01*
X197700000Y-113400000D01*
X197200000Y-113400000D01*
X197200000Y-112700000D01*
X196200000Y-112700000D01*
X196200000Y-112848670D01*
X180100500Y-112848670D01*
X180100500Y-112051329D01*
X196200000Y-112051329D01*
X196200000Y-112200000D01*
X197200000Y-112200000D01*
X197700000Y-112200000D01*
X198700000Y-112200000D01*
X198700000Y-112051329D01*
X198699996Y-112051298D01*
X201099500Y-112051298D01*
X201099500Y-112848703D01*
X201114696Y-112964142D01*
X201114699Y-112964151D01*
X201174093Y-113107541D01*
X201174200Y-113107798D01*
X201268851Y-113231149D01*
X201392202Y-113325800D01*
X201535849Y-113385301D01*
X201651299Y-113400500D01*
X203048700Y-113400499D01*
X203048703Y-113400499D01*
X203164142Y-113385303D01*
X203164146Y-113385301D01*
X203164151Y-113385301D01*
X203307798Y-113325800D01*
X203431149Y-113231149D01*
X203525800Y-113107798D01*
X203585301Y-112964151D01*
X203600500Y-112848701D01*
X203600499Y-112400013D01*
X205750000Y-112400013D01*
X205750000Y-112612500D01*
X207350000Y-112612500D01*
X207850000Y-112612500D01*
X209449999Y-112612500D01*
X209449999Y-112400028D01*
X209449998Y-112400013D01*
X209439505Y-112297302D01*
X209384358Y-112130880D01*
X209384356Y-112130875D01*
X209292315Y-111981654D01*
X209168345Y-111857684D01*
X209072669Y-111798670D01*
X215750000Y-111798670D01*
X215765185Y-111914019D01*
X215765187Y-111914024D01*
X215824633Y-112057541D01*
X215824633Y-112057542D01*
X215919207Y-112180792D01*
X216042458Y-112275366D01*
X216185975Y-112334812D01*
X216185980Y-112334814D01*
X216301329Y-112350000D01*
X216750000Y-112350000D01*
X217250000Y-112350000D01*
X217698671Y-112350000D01*
X217814019Y-112334814D01*
X217814024Y-112334812D01*
X217957541Y-112275366D01*
X217957542Y-112275366D01*
X218080792Y-112180792D01*
X218175366Y-112057542D01*
X218175366Y-112057541D01*
X218234812Y-111914024D01*
X218234814Y-111914019D01*
X218250000Y-111798670D01*
X218250000Y-111650000D01*
X217250000Y-111650000D01*
X217250000Y-112350000D01*
X216750000Y-112350000D01*
X216750000Y-111650000D01*
X215750000Y-111650000D01*
X215750000Y-111798670D01*
X209072669Y-111798670D01*
X209019124Y-111765643D01*
X209019119Y-111765641D01*
X208870349Y-111716344D01*
X208852697Y-111710494D01*
X208852690Y-111710493D01*
X208749986Y-111700000D01*
X207850000Y-111700000D01*
X207850000Y-112612500D01*
X207350000Y-112612500D01*
X207350000Y-111700000D01*
X206450028Y-111700000D01*
X206450012Y-111700001D01*
X206347302Y-111710494D01*
X206180880Y-111765641D01*
X206180875Y-111765643D01*
X206031654Y-111857684D01*
X205907684Y-111981654D01*
X205815643Y-112130875D01*
X205815641Y-112130880D01*
X205760494Y-112297302D01*
X205760493Y-112297309D01*
X205750000Y-112400013D01*
X203600499Y-112400013D01*
X203600499Y-112051300D01*
X203600499Y-112051298D01*
X203600499Y-112051296D01*
X203585303Y-111935857D01*
X203585301Y-111935850D01*
X203585301Y-111935849D01*
X203525800Y-111792202D01*
X203431149Y-111668851D01*
X203307798Y-111574200D01*
X203307794Y-111574198D01*
X203164151Y-111514699D01*
X203164149Y-111514698D01*
X203048701Y-111499500D01*
X201651296Y-111499500D01*
X201535857Y-111514696D01*
X201535848Y-111514699D01*
X201392205Y-111574198D01*
X201392202Y-111574199D01*
X201392202Y-111574200D01*
X201268851Y-111668851D01*
X201188757Y-111773232D01*
X201174198Y-111792205D01*
X201114699Y-111935848D01*
X201114698Y-111935850D01*
X201099500Y-112051298D01*
X198699996Y-112051298D01*
X198684814Y-111935980D01*
X198684812Y-111935975D01*
X198625366Y-111792458D01*
X198625366Y-111792457D01*
X198530792Y-111669207D01*
X198407541Y-111574633D01*
X198264024Y-111515187D01*
X198264019Y-111515185D01*
X198148671Y-111500000D01*
X197700000Y-111500000D01*
X197700000Y-112200000D01*
X197200000Y-112200000D01*
X197200000Y-111500000D01*
X196751329Y-111500000D01*
X196635980Y-111515185D01*
X196635975Y-111515187D01*
X196492458Y-111574633D01*
X196492457Y-111574633D01*
X196369207Y-111669207D01*
X196274633Y-111792457D01*
X196274633Y-111792458D01*
X196215187Y-111935975D01*
X196215185Y-111935980D01*
X196200000Y-112051329D01*
X180100500Y-112051329D01*
X180100500Y-108751298D01*
X196199500Y-108751298D01*
X196199500Y-109548703D01*
X196214696Y-109664142D01*
X196214699Y-109664151D01*
X196232014Y-109705954D01*
X196274200Y-109807798D01*
X196368851Y-109931149D01*
X196492202Y-110025800D01*
X196635849Y-110085301D01*
X196751299Y-110100500D01*
X198148700Y-110100499D01*
X198148703Y-110100499D01*
X198264142Y-110085303D01*
X198264146Y-110085301D01*
X198264151Y-110085301D01*
X198407798Y-110025800D01*
X198531149Y-109931149D01*
X198625800Y-109807798D01*
X198685301Y-109664151D01*
X198700500Y-109548701D01*
X198700499Y-108751300D01*
X198700499Y-108751298D01*
X198700499Y-108751296D01*
X198685303Y-108635857D01*
X198685301Y-108635850D01*
X198685301Y-108635849D01*
X198625800Y-108492202D01*
X198531149Y-108368851D01*
X198471230Y-108322873D01*
X198430030Y-108266448D01*
X198425875Y-108196702D01*
X198460087Y-108135781D01*
X198521805Y-108103029D01*
X198546719Y-108100500D01*
X201253281Y-108100500D01*
X201320320Y-108120185D01*
X201366075Y-108172989D01*
X201376019Y-108242147D01*
X201346994Y-108305703D01*
X201328774Y-108322869D01*
X201268851Y-108368851D01*
X201204009Y-108453355D01*
X201174198Y-108492205D01*
X201114699Y-108635848D01*
X201114698Y-108635850D01*
X201099500Y-108751298D01*
X201099500Y-109548703D01*
X201114696Y-109664142D01*
X201114699Y-109664151D01*
X201132014Y-109705954D01*
X201174200Y-109807798D01*
X201268851Y-109931149D01*
X201392202Y-110025800D01*
X201535849Y-110085301D01*
X201651299Y-110100500D01*
X203048700Y-110100499D01*
X203048703Y-110100499D01*
X203164142Y-110085303D01*
X203164146Y-110085301D01*
X203164151Y-110085301D01*
X203307798Y-110025800D01*
X203431149Y-109931149D01*
X203525800Y-109807798D01*
X203585301Y-109664151D01*
X203600500Y-109548701D01*
X203600499Y-109274983D01*
X205749500Y-109274983D01*
X205749500Y-110200001D01*
X205749501Y-110200019D01*
X205760000Y-110302796D01*
X205760001Y-110302799D01*
X205811953Y-110459577D01*
X205815186Y-110469334D01*
X205907288Y-110618656D01*
X206031344Y-110742712D01*
X206180666Y-110834814D01*
X206347203Y-110889999D01*
X206449991Y-110900500D01*
X208750008Y-110900499D01*
X208852797Y-110889999D01*
X209019334Y-110834814D01*
X209168656Y-110742712D01*
X209292712Y-110618656D01*
X209384814Y-110469334D01*
X209439999Y-110302797D01*
X209450500Y-110200009D01*
X209450499Y-109274992D01*
X209450176Y-109271834D01*
X209439999Y-109172203D01*
X209439998Y-109172200D01*
X209434682Y-109156157D01*
X209384814Y-109005666D01*
X209292712Y-108856344D01*
X209168656Y-108732288D01*
X209019334Y-108640186D01*
X208852797Y-108585001D01*
X208852795Y-108585000D01*
X208750010Y-108574500D01*
X206449998Y-108574500D01*
X206449981Y-108574501D01*
X206347203Y-108585000D01*
X206347200Y-108585001D01*
X206180668Y-108640185D01*
X206180663Y-108640187D01*
X206031342Y-108732289D01*
X205907289Y-108856342D01*
X205815187Y-109005663D01*
X205815186Y-109005666D01*
X205760001Y-109172203D01*
X205760001Y-109172204D01*
X205760000Y-109172204D01*
X205749500Y-109274983D01*
X203600499Y-109274983D01*
X203600499Y-109148083D01*
X203600499Y-108751296D01*
X203585303Y-108635857D01*
X203585301Y-108635850D01*
X203585301Y-108635849D01*
X203525800Y-108492202D01*
X203431149Y-108368851D01*
X203371230Y-108322873D01*
X203330030Y-108266448D01*
X203325875Y-108196702D01*
X203360087Y-108135781D01*
X203421805Y-108103029D01*
X203446719Y-108100500D01*
X209699903Y-108100500D01*
X209766942Y-108120185D01*
X209787583Y-108136818D01*
X212031284Y-110380520D01*
X212031286Y-110380521D01*
X212031290Y-110380524D01*
X212150762Y-110449500D01*
X212168216Y-110459577D01*
X212320943Y-110500501D01*
X212320945Y-110500501D01*
X212486654Y-110500501D01*
X212486670Y-110500500D01*
X215758847Y-110500500D01*
X215825886Y-110520185D01*
X215871641Y-110572989D01*
X215881585Y-110642147D01*
X215857223Y-110699987D01*
X215824633Y-110742457D01*
X215824633Y-110742458D01*
X215765187Y-110885975D01*
X215765185Y-110885980D01*
X215750000Y-111001329D01*
X215750000Y-111150000D01*
X218250000Y-111150000D01*
X218250000Y-111001329D01*
X218234814Y-110885980D01*
X218234812Y-110885975D01*
X218175366Y-110742458D01*
X218175366Y-110742457D01*
X218142777Y-110699987D01*
X218117583Y-110634818D01*
X218131621Y-110566373D01*
X218180435Y-110516383D01*
X218241153Y-110500500D01*
X219299903Y-110500500D01*
X219366942Y-110520185D01*
X219387584Y-110536819D01*
X220619478Y-111768713D01*
X220619480Y-111768716D01*
X220619753Y-111768989D01*
X220620987Y-111771250D01*
X220622717Y-111772672D01*
X220622727Y-111772684D01*
X220622069Y-111773232D01*
X220636911Y-111800420D01*
X220653224Y-111830288D01*
X220653227Y-111830310D01*
X220653230Y-111830314D01*
X220653229Y-111830319D01*
X220655000Y-111840475D01*
X220664698Y-111914148D01*
X220664699Y-111914151D01*
X220724093Y-112057541D01*
X220724200Y-112057798D01*
X220818851Y-112181149D01*
X220942202Y-112275800D01*
X221085849Y-112335301D01*
X221201299Y-112350500D01*
X222598700Y-112350499D01*
X222598703Y-112350499D01*
X222714142Y-112335303D01*
X222714146Y-112335301D01*
X222714151Y-112335301D01*
X222857798Y-112275800D01*
X222981149Y-112181149D01*
X223075800Y-112057798D01*
X223135301Y-111914151D01*
X223142103Y-111862486D01*
X224650001Y-111862486D01*
X224660494Y-111965197D01*
X224715641Y-112131619D01*
X224715643Y-112131624D01*
X224807684Y-112280845D01*
X224931654Y-112404815D01*
X225080875Y-112496856D01*
X225080880Y-112496858D01*
X225247302Y-112552005D01*
X225247309Y-112552006D01*
X225350019Y-112562499D01*
X226249999Y-112562499D01*
X226750000Y-112562499D01*
X227649972Y-112562499D01*
X227649986Y-112562498D01*
X227752697Y-112552005D01*
X227919119Y-112496858D01*
X227919124Y-112496856D01*
X228068345Y-112404815D01*
X228192315Y-112280845D01*
X228284356Y-112131624D01*
X228284358Y-112131619D01*
X228339505Y-111965197D01*
X228339506Y-111965190D01*
X228349999Y-111862486D01*
X228350000Y-111862473D01*
X228350000Y-111650000D01*
X226750000Y-111650000D01*
X226750000Y-112562499D01*
X226249999Y-112562499D01*
X226250000Y-112562498D01*
X226250000Y-111650000D01*
X224650001Y-111650000D01*
X224650001Y-111862486D01*
X223142103Y-111862486D01*
X223150500Y-111798701D01*
X223150499Y-111001300D01*
X223142102Y-110937513D01*
X224650000Y-110937513D01*
X224650000Y-111150000D01*
X226250000Y-111150000D01*
X226750000Y-111150000D01*
X228349999Y-111150000D01*
X228349999Y-110937528D01*
X228349998Y-110937513D01*
X228339505Y-110834802D01*
X228284358Y-110668380D01*
X228284356Y-110668375D01*
X228192315Y-110519154D01*
X228068345Y-110395184D01*
X227919124Y-110303143D01*
X227919119Y-110303141D01*
X227752697Y-110247994D01*
X227752690Y-110247993D01*
X227649986Y-110237500D01*
X226750000Y-110237500D01*
X226750000Y-111150000D01*
X226250000Y-111150000D01*
X226250000Y-110237500D01*
X225350028Y-110237500D01*
X225350012Y-110237501D01*
X225247302Y-110247994D01*
X225080880Y-110303141D01*
X225080875Y-110303143D01*
X224931654Y-110395184D01*
X224807684Y-110519154D01*
X224715643Y-110668375D01*
X224715641Y-110668380D01*
X224660494Y-110834802D01*
X224660493Y-110834809D01*
X224650000Y-110937513D01*
X223142102Y-110937513D01*
X223135301Y-110885849D01*
X223075800Y-110742202D01*
X222981149Y-110618851D01*
X222857798Y-110524200D01*
X222857794Y-110524198D01*
X222714151Y-110464699D01*
X222714149Y-110464698D01*
X222598701Y-110449500D01*
X221201296Y-110449500D01*
X221082924Y-110465083D01*
X221013889Y-110454317D01*
X220979060Y-110429825D01*
X220087590Y-109538355D01*
X220087588Y-109538352D01*
X219968717Y-109419481D01*
X219968716Y-109419480D01*
X219881904Y-109369360D01*
X219881904Y-109369359D01*
X219881900Y-109369358D01*
X219831785Y-109340423D01*
X219679057Y-109299499D01*
X219520943Y-109299499D01*
X219513347Y-109299499D01*
X219513331Y-109299500D01*
X212700098Y-109299500D01*
X212633059Y-109279815D01*
X212612417Y-109263181D01*
X211875348Y-108526112D01*
X211050533Y-107701298D01*
X215749500Y-107701298D01*
X215749500Y-108498703D01*
X215764696Y-108614142D01*
X215764699Y-108614151D01*
X215821507Y-108751298D01*
X215824200Y-108757798D01*
X215918851Y-108881149D01*
X216042202Y-108975800D01*
X216185849Y-109035301D01*
X216301299Y-109050500D01*
X217698700Y-109050499D01*
X217698703Y-109050499D01*
X217814142Y-109035303D01*
X217814146Y-109035301D01*
X217814151Y-109035301D01*
X217957798Y-108975800D01*
X218081149Y-108881149D01*
X218175800Y-108757798D01*
X218235301Y-108614151D01*
X218250500Y-108498701D01*
X218250499Y-107750095D01*
X218259145Y-107720649D01*
X218263355Y-107701298D01*
X220649500Y-107701298D01*
X220649500Y-108498703D01*
X220664696Y-108614142D01*
X220664699Y-108614151D01*
X220721507Y-108751298D01*
X220724200Y-108757798D01*
X220818851Y-108881149D01*
X220942202Y-108975800D01*
X221085849Y-109035301D01*
X221201299Y-109050500D01*
X222598700Y-109050499D01*
X222598703Y-109050499D01*
X222714142Y-109035303D01*
X222714146Y-109035301D01*
X222714151Y-109035301D01*
X222857798Y-108975800D01*
X222981149Y-108881149D01*
X223075800Y-108757798D01*
X223135301Y-108614151D01*
X223150500Y-108498701D01*
X223150499Y-107701300D01*
X223150499Y-107701298D01*
X223150499Y-107701296D01*
X223135303Y-107585857D01*
X223135301Y-107585850D01*
X223135301Y-107585849D01*
X223075800Y-107442202D01*
X222981149Y-107318851D01*
X222857798Y-107224200D01*
X222857794Y-107224198D01*
X222714151Y-107164699D01*
X222714149Y-107164698D01*
X222598701Y-107149500D01*
X221201296Y-107149500D01*
X221085857Y-107164696D01*
X221085848Y-107164699D01*
X220942205Y-107224198D01*
X220818851Y-107318851D01*
X220724198Y-107442205D01*
X220664699Y-107585848D01*
X220664698Y-107585850D01*
X220649500Y-107701298D01*
X218263355Y-107701298D01*
X218265667Y-107690669D01*
X218269419Y-107685655D01*
X218270183Y-107683057D01*
X218286813Y-107662420D01*
X219212416Y-106736819D01*
X219273739Y-106703334D01*
X219300097Y-106700500D01*
X226399903Y-106700500D01*
X226466942Y-106720185D01*
X226487584Y-106736819D01*
X226651084Y-106900319D01*
X226684569Y-106961642D01*
X226679585Y-107031334D01*
X226637713Y-107087267D01*
X226572249Y-107111684D01*
X226563403Y-107112000D01*
X225349998Y-107112000D01*
X225349981Y-107112001D01*
X225247203Y-107122500D01*
X225247200Y-107122501D01*
X225080668Y-107177685D01*
X225080663Y-107177687D01*
X224931342Y-107269789D01*
X224807289Y-107393842D01*
X224715187Y-107543163D01*
X224715185Y-107543168D01*
X224693185Y-107609559D01*
X224660001Y-107709703D01*
X224660001Y-107709704D01*
X224660000Y-107709704D01*
X224649500Y-107812483D01*
X224649500Y-108737501D01*
X224649501Y-108737519D01*
X224660000Y-108840296D01*
X224660001Y-108840299D01*
X224673538Y-108881149D01*
X224715186Y-109006834D01*
X224807288Y-109156156D01*
X224931344Y-109280212D01*
X225080666Y-109372314D01*
X225247203Y-109427499D01*
X225349991Y-109438000D01*
X227650008Y-109437999D01*
X227752797Y-109427499D01*
X227919334Y-109372314D01*
X228068656Y-109280212D01*
X228192712Y-109156156D01*
X228284814Y-109006834D01*
X228339253Y-108842547D01*
X228379023Y-108785106D01*
X228443539Y-108758283D01*
X228512315Y-108770598D01*
X228544638Y-108793874D01*
X230131284Y-110380520D01*
X230131286Y-110380521D01*
X230131290Y-110380524D01*
X230250762Y-110449500D01*
X230268216Y-110459577D01*
X230420943Y-110500501D01*
X230420945Y-110500501D01*
X230586654Y-110500501D01*
X230586670Y-110500500D01*
X234919699Y-110500500D01*
X234986738Y-110520185D01*
X235032493Y-110572989D01*
X235037403Y-110585492D01*
X235065186Y-110669334D01*
X235157288Y-110818656D01*
X235281344Y-110942712D01*
X235430666Y-111034814D01*
X235597203Y-111089999D01*
X235699991Y-111100500D01*
X236500008Y-111100499D01*
X236500016Y-111100498D01*
X236500019Y-111100498D01*
X236556302Y-111094748D01*
X236602797Y-111089999D01*
X236769334Y-111034814D01*
X236918656Y-110942712D01*
X237012319Y-110849049D01*
X237073642Y-110815564D01*
X237143334Y-110820548D01*
X237187681Y-110849049D01*
X237281344Y-110942712D01*
X237430666Y-111034814D01*
X237597203Y-111089999D01*
X237699991Y-111100500D01*
X238500008Y-111100499D01*
X238500016Y-111100498D01*
X238500019Y-111100498D01*
X238556302Y-111094748D01*
X238602797Y-111089999D01*
X238769334Y-111034814D01*
X238918656Y-110942712D01*
X239042712Y-110818656D01*
X239134814Y-110669334D01*
X239189999Y-110502797D01*
X239200500Y-110400009D01*
X239200499Y-109399992D01*
X239197671Y-109372312D01*
X239189999Y-109297203D01*
X239189998Y-109297200D01*
X239181631Y-109271949D01*
X239134814Y-109130666D01*
X239042712Y-108981344D01*
X238918656Y-108857288D01*
X238769334Y-108765186D01*
X238769332Y-108765185D01*
X238763187Y-108761395D01*
X238764290Y-108759605D01*
X238719649Y-108720290D01*
X238700500Y-108654091D01*
X238700500Y-108382940D01*
X238720185Y-108315901D01*
X238736814Y-108295263D01*
X238821789Y-108210289D01*
X238909394Y-108079179D01*
X238969737Y-107933497D01*
X239000500Y-107778842D01*
X239000500Y-107621158D01*
X239000500Y-107621155D01*
X239000499Y-107621153D01*
X238993477Y-107585850D01*
X238969737Y-107466503D01*
X238934441Y-107381290D01*
X238909397Y-107320827D01*
X238909390Y-107320814D01*
X238821789Y-107189711D01*
X238821786Y-107189707D01*
X238710292Y-107078213D01*
X238710288Y-107078210D01*
X238579185Y-106990609D01*
X238579172Y-106990602D01*
X238433501Y-106930264D01*
X238433489Y-106930261D01*
X238278845Y-106899500D01*
X238278842Y-106899500D01*
X238121158Y-106899500D01*
X238121155Y-106899500D01*
X237966510Y-106930261D01*
X237966498Y-106930264D01*
X237820827Y-106990602D01*
X237820814Y-106990609D01*
X237689711Y-107078210D01*
X237689707Y-107078213D01*
X237578213Y-107189707D01*
X237578210Y-107189711D01*
X237490609Y-107320814D01*
X237490602Y-107320827D01*
X237430264Y-107466498D01*
X237430261Y-107466510D01*
X237399500Y-107621153D01*
X237399500Y-107778846D01*
X237430261Y-107933489D01*
X237430264Y-107933501D01*
X237490061Y-108077864D01*
X237499500Y-108125316D01*
X237499500Y-108654091D01*
X237479815Y-108721130D01*
X237435731Y-108759641D01*
X237436813Y-108761395D01*
X237430667Y-108765185D01*
X237430666Y-108765186D01*
X237384155Y-108793874D01*
X237281342Y-108857289D01*
X237187681Y-108950951D01*
X237126358Y-108984436D01*
X237056666Y-108979452D01*
X237012319Y-108950951D01*
X236918657Y-108857289D01*
X236918656Y-108857288D01*
X236801630Y-108785106D01*
X236769336Y-108765187D01*
X236769331Y-108765185D01*
X236767862Y-108764698D01*
X236602797Y-108710001D01*
X236602795Y-108710000D01*
X236500010Y-108699500D01*
X235699998Y-108699500D01*
X235699980Y-108699501D01*
X235597203Y-108710000D01*
X235597200Y-108710001D01*
X235430668Y-108765185D01*
X235430663Y-108765187D01*
X235281342Y-108857289D01*
X235157289Y-108981342D01*
X235065187Y-109130663D01*
X235065185Y-109130668D01*
X235037405Y-109214504D01*
X234997632Y-109271949D01*
X234933116Y-109298772D01*
X234919699Y-109299500D01*
X230800098Y-109299500D01*
X230733059Y-109279815D01*
X230712417Y-109263181D01*
X227187590Y-105738355D01*
X227187588Y-105738352D01*
X227068717Y-105619481D01*
X227068716Y-105619480D01*
X226981904Y-105569360D01*
X226981904Y-105569359D01*
X226981900Y-105569358D01*
X226931785Y-105540423D01*
X226779057Y-105499499D01*
X226620943Y-105499499D01*
X226613347Y-105499499D01*
X226613331Y-105499500D01*
X219079057Y-105499500D01*
X218920943Y-105499500D01*
X218768215Y-105540423D01*
X218768214Y-105540423D01*
X218768212Y-105540424D01*
X218768209Y-105540425D01*
X218718096Y-105569359D01*
X218718095Y-105569360D01*
X218674689Y-105594420D01*
X218631285Y-105619479D01*
X218631282Y-105619481D01*
X218519478Y-105731286D01*
X217137582Y-107113181D01*
X217076259Y-107146666D01*
X217049901Y-107149500D01*
X216301296Y-107149500D01*
X216185857Y-107164696D01*
X216185848Y-107164699D01*
X216042205Y-107224198D01*
X215918851Y-107318851D01*
X215824198Y-107442205D01*
X215764699Y-107585848D01*
X215764698Y-107585850D01*
X215749500Y-107701298D01*
X211050533Y-107701298D01*
X210487589Y-107138354D01*
X210487588Y-107138352D01*
X210368717Y-107019481D01*
X210368716Y-107019480D01*
X210281904Y-106969360D01*
X210281904Y-106969359D01*
X210281900Y-106969358D01*
X210231785Y-106940423D01*
X210079057Y-106899499D01*
X209920943Y-106899499D01*
X209913347Y-106899499D01*
X209913331Y-106899500D01*
X197620940Y-106899500D01*
X197580019Y-106910464D01*
X197580019Y-106910465D01*
X197542751Y-106920451D01*
X197468214Y-106940423D01*
X197468209Y-106940426D01*
X197331290Y-107019475D01*
X197331282Y-107019481D01*
X196969481Y-107381282D01*
X196969475Y-107381290D01*
X196920279Y-107466502D01*
X196920279Y-107466503D01*
X196890423Y-107518215D01*
X196849499Y-107670943D01*
X196849499Y-107670945D01*
X196849499Y-107839046D01*
X196849500Y-107839059D01*
X196849500Y-108077827D01*
X196829815Y-108144866D01*
X196777011Y-108190621D01*
X196741684Y-108200766D01*
X196635857Y-108214697D01*
X196635848Y-108214699D01*
X196492205Y-108274198D01*
X196492202Y-108274199D01*
X196492202Y-108274200D01*
X196368851Y-108368851D01*
X196304009Y-108453355D01*
X196274198Y-108492205D01*
X196214699Y-108635848D01*
X196214698Y-108635850D01*
X196199500Y-108751298D01*
X180100500Y-108751298D01*
X180100500Y-99013389D01*
X183719500Y-99013389D01*
X183719500Y-99186610D01*
X183743793Y-99339995D01*
X183746598Y-99357701D01*
X183800127Y-99522445D01*
X183878768Y-99676788D01*
X183980586Y-99816928D01*
X184103072Y-99939414D01*
X184243212Y-100041232D01*
X184397555Y-100119873D01*
X184562299Y-100173402D01*
X184733389Y-100200500D01*
X184733390Y-100200500D01*
X184906610Y-100200500D01*
X184906611Y-100200500D01*
X185077701Y-100173402D01*
X185242445Y-100119873D01*
X185396788Y-100041232D01*
X185536928Y-99939414D01*
X185659414Y-99816928D01*
X185761232Y-99676788D01*
X185839873Y-99522445D01*
X185893402Y-99357701D01*
X185920500Y-99186611D01*
X185920500Y-99013389D01*
X185910854Y-98952486D01*
X187649500Y-98952486D01*
X187649500Y-99247513D01*
X187674842Y-99439995D01*
X187688007Y-99539993D01*
X187762212Y-99816930D01*
X187764361Y-99824951D01*
X187764364Y-99824961D01*
X187877254Y-100097500D01*
X187877258Y-100097510D01*
X188024761Y-100352993D01*
X188204352Y-100587040D01*
X188204358Y-100587047D01*
X188412952Y-100795641D01*
X188412959Y-100795647D01*
X188647006Y-100975238D01*
X188902489Y-101122741D01*
X188902490Y-101122741D01*
X188902493Y-101122743D01*
X189113296Y-101210060D01*
X189117961Y-101211993D01*
X189175048Y-101235639D01*
X189460007Y-101311993D01*
X189752494Y-101350500D01*
X189752501Y-101350500D01*
X190047499Y-101350500D01*
X190047506Y-101350500D01*
X190339993Y-101311993D01*
X190624952Y-101235639D01*
X190897507Y-101122743D01*
X191152994Y-100975238D01*
X191387042Y-100795646D01*
X191595646Y-100587042D01*
X191775238Y-100352994D01*
X191922743Y-100097507D01*
X192035639Y-99824952D01*
X192111993Y-99539993D01*
X192150500Y-99247506D01*
X192150500Y-99013389D01*
X193879500Y-99013389D01*
X193879500Y-99186610D01*
X193903793Y-99339995D01*
X193906598Y-99357701D01*
X193960127Y-99522445D01*
X194038768Y-99676788D01*
X194140586Y-99816928D01*
X194263072Y-99939414D01*
X194403212Y-100041232D01*
X194557555Y-100119873D01*
X194722299Y-100173402D01*
X194893389Y-100200500D01*
X194893390Y-100200500D01*
X195066610Y-100200500D01*
X195066611Y-100200500D01*
X195237701Y-100173402D01*
X195402445Y-100119873D01*
X195556788Y-100041232D01*
X195696928Y-99939414D01*
X195819414Y-99816928D01*
X195921232Y-99676788D01*
X195999873Y-99522445D01*
X196053402Y-99357701D01*
X196080500Y-99186611D01*
X196080500Y-99013389D01*
X196076491Y-98988075D01*
X196053403Y-98842304D01*
X196053402Y-98842302D01*
X196053402Y-98842299D01*
X196044008Y-98813389D01*
X203719500Y-98813389D01*
X203719500Y-98986611D01*
X203746598Y-99157701D01*
X203800127Y-99322445D01*
X203878768Y-99476788D01*
X203980586Y-99616928D01*
X204103072Y-99739414D01*
X204243212Y-99841232D01*
X204397555Y-99919873D01*
X204562299Y-99973402D01*
X204733389Y-100000500D01*
X204733390Y-100000500D01*
X204906610Y-100000500D01*
X204906611Y-100000500D01*
X205077701Y-99973402D01*
X205242445Y-99919873D01*
X205396788Y-99841232D01*
X205536928Y-99739414D01*
X205659414Y-99616928D01*
X205761232Y-99476788D01*
X205839873Y-99322445D01*
X205893402Y-99157701D01*
X205920500Y-98986611D01*
X205920500Y-98813389D01*
X205910854Y-98752486D01*
X207649500Y-98752486D01*
X207649500Y-99047513D01*
X207677172Y-99257697D01*
X207688007Y-99339993D01*
X207762212Y-99616930D01*
X207764361Y-99624951D01*
X207764364Y-99624961D01*
X207877254Y-99897500D01*
X207877258Y-99897510D01*
X208024761Y-100152993D01*
X208204352Y-100387040D01*
X208204358Y-100387047D01*
X208412952Y-100595641D01*
X208412959Y-100595647D01*
X208647006Y-100775238D01*
X208902489Y-100922741D01*
X208902490Y-100922741D01*
X208902493Y-100922743D01*
X209175048Y-101035639D01*
X209460007Y-101111993D01*
X209752494Y-101150500D01*
X209752501Y-101150500D01*
X210047499Y-101150500D01*
X210047506Y-101150500D01*
X210339993Y-101111993D01*
X210624952Y-101035639D01*
X210897507Y-100922743D01*
X211152994Y-100775238D01*
X211387042Y-100595646D01*
X211595646Y-100387042D01*
X211775238Y-100152994D01*
X211922743Y-99897507D01*
X212035639Y-99624952D01*
X212111993Y-99339993D01*
X212150500Y-99047506D01*
X212150500Y-98813389D01*
X213879500Y-98813389D01*
X213879500Y-98986611D01*
X213906598Y-99157701D01*
X213960127Y-99322445D01*
X214038768Y-99476788D01*
X214140586Y-99616928D01*
X214263072Y-99739414D01*
X214403212Y-99841232D01*
X214557555Y-99919873D01*
X214722299Y-99973402D01*
X214893389Y-100000500D01*
X214893390Y-100000500D01*
X215066610Y-100000500D01*
X215066611Y-100000500D01*
X215237701Y-99973402D01*
X215402445Y-99919873D01*
X215556788Y-99841232D01*
X215696928Y-99739414D01*
X215819414Y-99616928D01*
X215921232Y-99476788D01*
X215999873Y-99322445D01*
X216053402Y-99157701D01*
X216080500Y-98986611D01*
X216080500Y-98913389D01*
X224599500Y-98913389D01*
X224599500Y-99086610D01*
X224625307Y-99249555D01*
X224626598Y-99257701D01*
X224680127Y-99422445D01*
X224758768Y-99576788D01*
X224860586Y-99716928D01*
X224983072Y-99839414D01*
X225123212Y-99941232D01*
X225277555Y-100019873D01*
X225442299Y-100073402D01*
X225613389Y-100100500D01*
X225613390Y-100100500D01*
X225786610Y-100100500D01*
X225786611Y-100100500D01*
X225957701Y-100073402D01*
X226122445Y-100019873D01*
X226276788Y-99941232D01*
X226416928Y-99839414D01*
X226539414Y-99716928D01*
X226641232Y-99576788D01*
X226719873Y-99422445D01*
X226773402Y-99257701D01*
X226800500Y-99086611D01*
X226800500Y-98913389D01*
X226790854Y-98852486D01*
X228529500Y-98852486D01*
X228529500Y-99147513D01*
X228554842Y-99339995D01*
X228568007Y-99439993D01*
X228643988Y-99723560D01*
X228644361Y-99724951D01*
X228644364Y-99724961D01*
X228757254Y-99997500D01*
X228757258Y-99997510D01*
X228904761Y-100252993D01*
X229084352Y-100487040D01*
X229084358Y-100487047D01*
X229292952Y-100695641D01*
X229292959Y-100695647D01*
X229527006Y-100875238D01*
X229782489Y-101022741D01*
X229782490Y-101022741D01*
X229782493Y-101022743D01*
X229993296Y-101110060D01*
X229997961Y-101111993D01*
X230055048Y-101135639D01*
X230340007Y-101211993D01*
X230632494Y-101250500D01*
X230632501Y-101250500D01*
X230927499Y-101250500D01*
X230927506Y-101250500D01*
X231219993Y-101211993D01*
X231504952Y-101135639D01*
X231777507Y-101022743D01*
X232032994Y-100875238D01*
X232267042Y-100695646D01*
X232475646Y-100487042D01*
X232655238Y-100252994D01*
X232802743Y-99997507D01*
X232915639Y-99724952D01*
X232991993Y-99439993D01*
X233030500Y-99147506D01*
X233030500Y-98913389D01*
X234759500Y-98913389D01*
X234759500Y-99086610D01*
X234785307Y-99249555D01*
X234786598Y-99257701D01*
X234840127Y-99422445D01*
X234918768Y-99576788D01*
X235020586Y-99716928D01*
X235143072Y-99839414D01*
X235283212Y-99941232D01*
X235437555Y-100019873D01*
X235602299Y-100073402D01*
X235773389Y-100100500D01*
X235773390Y-100100500D01*
X235946610Y-100100500D01*
X235946611Y-100100500D01*
X236117701Y-100073402D01*
X236282445Y-100019873D01*
X236436788Y-99941232D01*
X236576928Y-99839414D01*
X236699414Y-99716928D01*
X236801232Y-99576788D01*
X236879873Y-99422445D01*
X236933402Y-99257701D01*
X236960500Y-99086611D01*
X236960500Y-98913389D01*
X236933402Y-98742299D01*
X236879873Y-98577555D01*
X236801232Y-98423212D01*
X236699414Y-98283072D01*
X236576928Y-98160586D01*
X236436788Y-98058768D01*
X236288672Y-97983300D01*
X236282447Y-97980128D01*
X236282446Y-97980127D01*
X236282445Y-97980127D01*
X236117701Y-97926598D01*
X236117699Y-97926597D01*
X236117698Y-97926597D01*
X235986271Y-97905781D01*
X235946611Y-97899500D01*
X235773389Y-97899500D01*
X235733728Y-97905781D01*
X235602302Y-97926597D01*
X235437552Y-97980128D01*
X235283211Y-98058768D01*
X235203256Y-98116859D01*
X235143072Y-98160586D01*
X235143070Y-98160588D01*
X235143069Y-98160588D01*
X235020588Y-98283069D01*
X235020588Y-98283070D01*
X235020586Y-98283072D01*
X234976859Y-98343256D01*
X234918768Y-98423211D01*
X234840128Y-98577552D01*
X234786597Y-98742302D01*
X234759500Y-98913389D01*
X233030500Y-98913389D01*
X233030500Y-98852494D01*
X232991993Y-98560007D01*
X232915639Y-98275048D01*
X232909649Y-98260588D01*
X232844164Y-98102493D01*
X232802743Y-98002493D01*
X232791694Y-97983356D01*
X232655238Y-97747006D01*
X232475647Y-97512959D01*
X232475641Y-97512952D01*
X232267047Y-97304358D01*
X232267040Y-97304352D01*
X232032993Y-97124761D01*
X231777510Y-96977258D01*
X231777500Y-96977254D01*
X231504961Y-96864364D01*
X231504954Y-96864362D01*
X231504952Y-96864361D01*
X231219993Y-96788007D01*
X231171113Y-96781571D01*
X230927513Y-96749500D01*
X230927506Y-96749500D01*
X230632494Y-96749500D01*
X230632486Y-96749500D01*
X230354085Y-96786153D01*
X230340007Y-96788007D01*
X230055048Y-96864361D01*
X230055038Y-96864364D01*
X229782499Y-96977254D01*
X229782489Y-96977258D01*
X229527006Y-97124761D01*
X229292959Y-97304352D01*
X229292952Y-97304358D01*
X229084358Y-97512952D01*
X229084352Y-97512959D01*
X228904761Y-97747006D01*
X228757258Y-98002489D01*
X228757254Y-98002499D01*
X228644364Y-98275038D01*
X228644361Y-98275048D01*
X228577867Y-98523211D01*
X228568008Y-98560004D01*
X228568006Y-98560015D01*
X228529500Y-98852486D01*
X226790854Y-98852486D01*
X226773402Y-98742299D01*
X226719873Y-98577555D01*
X226641232Y-98423212D01*
X226539414Y-98283072D01*
X226487482Y-98231140D01*
X226453997Y-98169817D01*
X226458981Y-98100125D01*
X226500853Y-98044192D01*
X226566317Y-98019775D01*
X226594561Y-98020986D01*
X226595212Y-98021089D01*
X226595215Y-98021090D01*
X226844038Y-98060500D01*
X226844039Y-98060500D01*
X227095961Y-98060500D01*
X227095962Y-98060500D01*
X227344785Y-98021090D01*
X227584379Y-97943241D01*
X227808845Y-97828870D01*
X228012656Y-97680793D01*
X228190793Y-97502656D01*
X228338870Y-97298845D01*
X228453241Y-97074379D01*
X228531090Y-96834785D01*
X228570500Y-96585962D01*
X228570500Y-96334038D01*
X228531090Y-96085215D01*
X228453241Y-95845621D01*
X228453239Y-95845618D01*
X228453239Y-95845616D01*
X228411747Y-95764184D01*
X228338870Y-95621155D01*
X228266822Y-95521989D01*
X228190798Y-95417350D01*
X228190794Y-95417345D01*
X228012654Y-95239205D01*
X228012649Y-95239201D01*
X227808848Y-95091132D01*
X227808847Y-95091131D01*
X227808845Y-95091130D01*
X227738747Y-95055413D01*
X227584383Y-94976760D01*
X227344785Y-94898910D01*
X227204930Y-94876759D01*
X227095962Y-94859500D01*
X226844038Y-94859500D01*
X226735070Y-94876759D01*
X226595214Y-94898910D01*
X226355616Y-94976760D01*
X226131151Y-95091132D01*
X225927350Y-95239201D01*
X225927345Y-95239205D01*
X225749205Y-95417345D01*
X225749201Y-95417350D01*
X225601132Y-95621151D01*
X225486760Y-95845616D01*
X225408910Y-96085214D01*
X225393071Y-96185215D01*
X225369500Y-96334038D01*
X225369500Y-96585962D01*
X225385663Y-96688008D01*
X225408910Y-96834785D01*
X225486760Y-97074383D01*
X225563382Y-97224761D01*
X225581496Y-97260312D01*
X225601132Y-97298848D01*
X225749201Y-97502649D01*
X225749205Y-97502654D01*
X225749207Y-97502656D01*
X225927344Y-97680793D01*
X225927345Y-97680794D01*
X225927344Y-97680794D01*
X225933661Y-97685383D01*
X225976327Y-97740714D01*
X225982305Y-97810327D01*
X225949699Y-97872122D01*
X225888860Y-97906479D01*
X225841378Y-97908174D01*
X225786611Y-97899500D01*
X225613389Y-97899500D01*
X225573728Y-97905781D01*
X225442302Y-97926597D01*
X225277552Y-97980128D01*
X225123211Y-98058768D01*
X225043256Y-98116859D01*
X224983072Y-98160586D01*
X224983070Y-98160588D01*
X224983069Y-98160588D01*
X224860588Y-98283069D01*
X224860588Y-98283070D01*
X224860586Y-98283072D01*
X224816859Y-98343256D01*
X224758768Y-98423211D01*
X224680128Y-98577552D01*
X224626597Y-98742302D01*
X224599500Y-98913389D01*
X216080500Y-98913389D01*
X216080500Y-98813389D01*
X216053402Y-98642299D01*
X215999873Y-98477555D01*
X215921232Y-98323212D01*
X215819414Y-98183072D01*
X215696928Y-98060586D01*
X215556788Y-97958768D01*
X215402445Y-97880127D01*
X215237701Y-97826598D01*
X215237699Y-97826597D01*
X215237698Y-97826597D01*
X215106271Y-97805781D01*
X215066611Y-97799500D01*
X214893389Y-97799500D01*
X214853728Y-97805781D01*
X214722302Y-97826597D01*
X214557552Y-97880128D01*
X214403211Y-97958768D01*
X214335211Y-98008174D01*
X214263072Y-98060586D01*
X214263070Y-98060588D01*
X214263069Y-98060588D01*
X214140588Y-98183069D01*
X214140588Y-98183070D01*
X214140586Y-98183072D01*
X214096859Y-98243256D01*
X214038768Y-98323211D01*
X213960128Y-98477552D01*
X213906597Y-98642302D01*
X213879500Y-98813389D01*
X212150500Y-98813389D01*
X212150500Y-98752494D01*
X212111993Y-98460007D01*
X212035639Y-98175048D01*
X212029649Y-98160588D01*
X211988802Y-98061973D01*
X211922743Y-97902493D01*
X211905208Y-97872122D01*
X211775238Y-97647006D01*
X211595647Y-97412959D01*
X211595641Y-97412952D01*
X211387047Y-97204358D01*
X211387040Y-97204352D01*
X211152993Y-97024761D01*
X210897510Y-96877258D01*
X210897500Y-96877254D01*
X210624961Y-96764364D01*
X210624954Y-96764362D01*
X210624952Y-96764361D01*
X210339993Y-96688007D01*
X210291113Y-96681571D01*
X210047513Y-96649500D01*
X210047506Y-96649500D01*
X209752494Y-96649500D01*
X209752486Y-96649500D01*
X209475548Y-96685961D01*
X209460007Y-96688007D01*
X209175048Y-96764361D01*
X209175038Y-96764364D01*
X208902499Y-96877254D01*
X208902489Y-96877258D01*
X208647006Y-97024761D01*
X208412959Y-97204352D01*
X208412952Y-97204358D01*
X208204358Y-97412952D01*
X208204352Y-97412959D01*
X208024761Y-97647006D01*
X207877258Y-97902489D01*
X207877254Y-97902499D01*
X207764364Y-98175038D01*
X207764361Y-98175048D01*
X207697867Y-98423211D01*
X207688008Y-98460004D01*
X207688006Y-98460015D01*
X207649500Y-98752486D01*
X205910854Y-98752486D01*
X205893402Y-98642299D01*
X205839873Y-98477555D01*
X205761232Y-98323212D01*
X205659414Y-98183072D01*
X205607482Y-98131140D01*
X205573997Y-98069817D01*
X205578981Y-98000125D01*
X205620853Y-97944192D01*
X205686317Y-97919775D01*
X205714561Y-97920986D01*
X205715212Y-97921089D01*
X205715215Y-97921090D01*
X205964038Y-97960500D01*
X205964039Y-97960500D01*
X206215961Y-97960500D01*
X206215962Y-97960500D01*
X206464785Y-97921090D01*
X206704379Y-97843241D01*
X206928845Y-97728870D01*
X207132656Y-97580793D01*
X207310793Y-97402656D01*
X207458870Y-97198845D01*
X207573241Y-96974379D01*
X207651090Y-96734785D01*
X207690500Y-96485962D01*
X207690500Y-96234038D01*
X207651090Y-95985215D01*
X207573241Y-95745621D01*
X207573239Y-95745618D01*
X207573239Y-95745616D01*
X207509234Y-95620000D01*
X207458870Y-95521155D01*
X207385377Y-95420000D01*
X207310798Y-95317350D01*
X207310794Y-95317345D01*
X207132654Y-95139205D01*
X207132649Y-95139201D01*
X206928848Y-94991132D01*
X206928847Y-94991131D01*
X206928845Y-94991130D01*
X206858747Y-94955413D01*
X206704383Y-94876760D01*
X206464785Y-94798910D01*
X206215962Y-94759500D01*
X205964038Y-94759500D01*
X205850316Y-94777512D01*
X205715214Y-94798910D01*
X205475616Y-94876760D01*
X205251151Y-94991132D01*
X205047350Y-95139201D01*
X205047345Y-95139205D01*
X204869205Y-95317345D01*
X204869201Y-95317350D01*
X204721132Y-95521151D01*
X204606760Y-95745616D01*
X204528910Y-95985214D01*
X204513071Y-96085215D01*
X204489500Y-96234038D01*
X204489500Y-96485962D01*
X204505339Y-96585962D01*
X204528910Y-96734785D01*
X204606760Y-96974383D01*
X204659176Y-97077254D01*
X204717892Y-97192491D01*
X204721132Y-97198848D01*
X204869201Y-97402649D01*
X204869205Y-97402654D01*
X204869207Y-97402656D01*
X205047344Y-97580793D01*
X205047345Y-97580794D01*
X205047344Y-97580794D01*
X205053661Y-97585383D01*
X205096327Y-97640714D01*
X205102305Y-97710327D01*
X205069699Y-97772122D01*
X205008860Y-97806479D01*
X204961378Y-97808174D01*
X204906611Y-97799500D01*
X204733389Y-97799500D01*
X204693728Y-97805781D01*
X204562302Y-97826597D01*
X204397552Y-97880128D01*
X204243211Y-97958768D01*
X204175211Y-98008174D01*
X204103072Y-98060586D01*
X204103070Y-98060588D01*
X204103069Y-98060588D01*
X203980588Y-98183069D01*
X203980588Y-98183070D01*
X203980586Y-98183072D01*
X203936859Y-98243256D01*
X203878768Y-98323211D01*
X203800128Y-98477552D01*
X203746597Y-98642302D01*
X203719500Y-98813389D01*
X196044008Y-98813389D01*
X195999873Y-98677555D01*
X195921232Y-98523212D01*
X195819414Y-98383072D01*
X195696928Y-98260586D01*
X195556788Y-98158768D01*
X195402445Y-98080127D01*
X195237701Y-98026598D01*
X195237699Y-98026597D01*
X195237698Y-98026597D01*
X195106271Y-98005781D01*
X195066611Y-97999500D01*
X194893389Y-97999500D01*
X194853728Y-98005781D01*
X194722302Y-98026597D01*
X194557552Y-98080128D01*
X194403211Y-98158768D01*
X194346289Y-98200125D01*
X194263072Y-98260586D01*
X194263070Y-98260588D01*
X194263069Y-98260588D01*
X194140588Y-98383069D01*
X194140588Y-98383070D01*
X194140586Y-98383072D01*
X194096859Y-98443256D01*
X194038768Y-98523211D01*
X193960128Y-98677552D01*
X193906597Y-98842302D01*
X193879500Y-99013389D01*
X192150500Y-99013389D01*
X192150500Y-98952494D01*
X192111993Y-98660007D01*
X192035639Y-98375048D01*
X191922743Y-98102493D01*
X191899352Y-98061979D01*
X191775238Y-97847006D01*
X191595647Y-97612959D01*
X191595641Y-97612952D01*
X191387047Y-97404358D01*
X191387040Y-97404352D01*
X191152993Y-97224761D01*
X190897510Y-97077258D01*
X190897500Y-97077254D01*
X190624961Y-96964364D01*
X190624954Y-96964362D01*
X190624952Y-96964361D01*
X190339993Y-96888007D01*
X190265700Y-96878226D01*
X190047513Y-96849500D01*
X190047506Y-96849500D01*
X189752494Y-96849500D01*
X189752486Y-96849500D01*
X189474085Y-96886153D01*
X189460007Y-96888007D01*
X189285428Y-96934785D01*
X189175048Y-96964361D01*
X189175038Y-96964364D01*
X188902499Y-97077254D01*
X188902489Y-97077258D01*
X188647006Y-97224761D01*
X188412959Y-97404352D01*
X188412952Y-97404358D01*
X188204358Y-97612952D01*
X188204352Y-97612959D01*
X188024761Y-97847006D01*
X187877258Y-98102489D01*
X187877254Y-98102499D01*
X187764364Y-98375038D01*
X187764361Y-98375048D01*
X187741597Y-98460007D01*
X187688008Y-98660004D01*
X187688006Y-98660015D01*
X187649500Y-98952486D01*
X185910854Y-98952486D01*
X185893402Y-98842299D01*
X185839873Y-98677555D01*
X185761232Y-98523212D01*
X185659414Y-98383072D01*
X185607482Y-98331140D01*
X185573997Y-98269817D01*
X185578981Y-98200125D01*
X185620853Y-98144192D01*
X185686317Y-98119775D01*
X185714561Y-98120986D01*
X185715212Y-98121089D01*
X185715215Y-98121090D01*
X185964038Y-98160500D01*
X185964039Y-98160500D01*
X186215961Y-98160500D01*
X186215962Y-98160500D01*
X186464785Y-98121090D01*
X186704379Y-98043241D01*
X186928845Y-97928870D01*
X187132656Y-97780793D01*
X187310793Y-97602656D01*
X187458870Y-97398845D01*
X187573241Y-97174379D01*
X187651090Y-96934785D01*
X187690500Y-96685962D01*
X187690500Y-96434038D01*
X187651090Y-96185215D01*
X187573241Y-95945621D01*
X187573239Y-95945618D01*
X187573239Y-95945616D01*
X187531747Y-95864184D01*
X187458870Y-95721155D01*
X187314168Y-95521989D01*
X187310798Y-95517350D01*
X187310794Y-95517345D01*
X187132654Y-95339205D01*
X187132649Y-95339201D01*
X186928848Y-95191132D01*
X186928847Y-95191131D01*
X186928845Y-95191130D01*
X186859186Y-95155637D01*
X186758205Y-95104184D01*
X186707409Y-95056209D01*
X186690500Y-94993699D01*
X186690500Y-93710097D01*
X186710185Y-93643058D01*
X186726819Y-93622416D01*
X188112417Y-92236819D01*
X188173740Y-92203334D01*
X188200098Y-92200500D01*
X192124374Y-92200500D01*
X192191413Y-92220185D01*
X192237168Y-92272989D01*
X192247112Y-92342147D01*
X192218087Y-92405703D01*
X192159309Y-92443477D01*
X192143772Y-92446973D01*
X192065330Y-92459397D01*
X191825815Y-92537219D01*
X191601413Y-92651559D01*
X191499301Y-92725747D01*
X191499300Y-92725748D01*
X192115974Y-93342421D01*
X192084742Y-93355359D01*
X191961903Y-93437437D01*
X191857437Y-93541903D01*
X191775359Y-93664742D01*
X191762421Y-93695974D01*
X191145748Y-93079300D01*
X191145747Y-93079301D01*
X191071559Y-93181413D01*
X190957219Y-93405815D01*
X190879397Y-93645330D01*
X190840000Y-93894071D01*
X190840000Y-94145928D01*
X190879397Y-94394669D01*
X190957219Y-94634184D01*
X191071557Y-94858583D01*
X191145748Y-94960697D01*
X191145748Y-94960698D01*
X191762421Y-94344024D01*
X191775359Y-94375258D01*
X191857437Y-94498097D01*
X191961903Y-94602563D01*
X192084742Y-94684641D01*
X192115974Y-94697577D01*
X191499300Y-95314250D01*
X191601416Y-95388442D01*
X191825815Y-95502780D01*
X192065330Y-95580602D01*
X192314072Y-95620000D01*
X192565928Y-95620000D01*
X192814669Y-95580602D01*
X193054184Y-95502780D01*
X193278575Y-95388446D01*
X193278581Y-95388442D01*
X193380697Y-95314250D01*
X193380698Y-95314250D01*
X192764025Y-94697578D01*
X192795258Y-94684641D01*
X192918097Y-94602563D01*
X193022563Y-94498097D01*
X193104641Y-94375258D01*
X193117577Y-94344025D01*
X193734250Y-94960698D01*
X193734250Y-94960697D01*
X193808442Y-94858581D01*
X193808446Y-94858575D01*
X193922780Y-94634184D01*
X194000602Y-94394669D01*
X194040000Y-94145928D01*
X194040000Y-93894071D01*
X194010624Y-93708603D01*
X194010624Y-93708602D01*
X194000603Y-93645331D01*
X193922780Y-93405815D01*
X193808442Y-93181416D01*
X193734250Y-93079301D01*
X193734250Y-93079300D01*
X193117577Y-93695973D01*
X193104641Y-93664742D01*
X193022563Y-93541903D01*
X192918097Y-93437437D01*
X192795258Y-93355359D01*
X192764024Y-93342421D01*
X193380698Y-92725748D01*
X193278583Y-92651557D01*
X193054184Y-92537219D01*
X192814669Y-92459397D01*
X192736228Y-92446973D01*
X192673093Y-92417044D01*
X192636162Y-92357732D01*
X192637160Y-92287870D01*
X192675770Y-92229637D01*
X192739734Y-92201523D01*
X192755626Y-92200500D01*
X211577646Y-92200500D01*
X211644685Y-92220185D01*
X211690440Y-92272989D01*
X211700384Y-92342147D01*
X211671359Y-92405703D01*
X211633942Y-92434984D01*
X211601415Y-92451557D01*
X211499301Y-92525747D01*
X211499300Y-92525748D01*
X212115974Y-93142421D01*
X212084742Y-93155359D01*
X211961903Y-93237437D01*
X211857437Y-93341903D01*
X211775359Y-93464742D01*
X211762421Y-93495974D01*
X211145748Y-92879300D01*
X211145747Y-92879301D01*
X211071559Y-92981413D01*
X210957219Y-93205815D01*
X210879397Y-93445330D01*
X210840000Y-93694071D01*
X210840000Y-93945928D01*
X210879397Y-94194669D01*
X210957219Y-94434184D01*
X211071557Y-94658583D01*
X211145748Y-94760697D01*
X211145748Y-94760698D01*
X211762421Y-94144024D01*
X211775359Y-94175258D01*
X211857437Y-94298097D01*
X211961903Y-94402563D01*
X212084742Y-94484641D01*
X212115974Y-94497577D01*
X211499300Y-95114250D01*
X211601416Y-95188442D01*
X211825815Y-95302780D01*
X212065330Y-95380602D01*
X212314072Y-95420000D01*
X212565928Y-95420000D01*
X212814669Y-95380602D01*
X213054184Y-95302780D01*
X213278575Y-95188446D01*
X213278581Y-95188442D01*
X213380697Y-95114250D01*
X213380698Y-95114250D01*
X212764025Y-94497578D01*
X212795258Y-94484641D01*
X212918097Y-94402563D01*
X213022563Y-94298097D01*
X213104641Y-94175258D01*
X213117577Y-94144025D01*
X213734250Y-94760698D01*
X213734250Y-94760697D01*
X213808442Y-94658581D01*
X213808446Y-94658575D01*
X213922780Y-94434184D01*
X214000602Y-94194669D01*
X214040000Y-93945928D01*
X214040000Y-93694071D01*
X214000602Y-93445330D01*
X213922780Y-93205815D01*
X213808442Y-92981416D01*
X213734250Y-92879301D01*
X213734250Y-92879300D01*
X213117577Y-93495973D01*
X213104641Y-93464742D01*
X213022563Y-93341903D01*
X212918097Y-93237437D01*
X212795258Y-93155359D01*
X212764024Y-93142421D01*
X213380698Y-92525748D01*
X213278581Y-92451555D01*
X213246058Y-92434984D01*
X213195263Y-92387010D01*
X213178468Y-92319189D01*
X213201006Y-92253054D01*
X213255721Y-92209603D01*
X213302354Y-92200500D01*
X221775500Y-92200500D01*
X221842539Y-92220185D01*
X221888294Y-92272989D01*
X221899500Y-92324500D01*
X221899500Y-92478846D01*
X221930261Y-92633489D01*
X221930264Y-92633501D01*
X221990602Y-92779172D01*
X221990609Y-92779185D01*
X222078210Y-92910288D01*
X222078213Y-92910292D01*
X222189707Y-93021786D01*
X222189711Y-93021789D01*
X222320814Y-93109390D01*
X222320827Y-93109397D01*
X222399894Y-93142147D01*
X222466503Y-93169737D01*
X222612722Y-93198822D01*
X222621153Y-93200499D01*
X222621156Y-93200500D01*
X222621158Y-93200500D01*
X222778844Y-93200500D01*
X222778845Y-93200499D01*
X222933497Y-93169737D01*
X223046166Y-93123067D01*
X223079172Y-93109397D01*
X223079172Y-93109396D01*
X223079179Y-93109394D01*
X223079185Y-93109390D01*
X223210875Y-93021398D01*
X223277553Y-93000520D01*
X223279766Y-93000500D01*
X231790436Y-93000500D01*
X231857475Y-93020185D01*
X231903230Y-93072989D01*
X231913174Y-93142147D01*
X231900921Y-93180795D01*
X231837219Y-93305815D01*
X231759397Y-93545330D01*
X231720000Y-93794071D01*
X231720000Y-94045928D01*
X231759397Y-94294669D01*
X231837219Y-94534184D01*
X231951557Y-94758583D01*
X232025748Y-94860697D01*
X232025748Y-94860698D01*
X232642421Y-94244024D01*
X232655359Y-94275258D01*
X232737437Y-94398097D01*
X232841903Y-94502563D01*
X232964742Y-94584641D01*
X232995974Y-94597577D01*
X232379300Y-95214250D01*
X232481416Y-95288442D01*
X232705815Y-95402780D01*
X232945330Y-95480602D01*
X233194072Y-95520000D01*
X233445928Y-95520000D01*
X233694669Y-95480602D01*
X233934184Y-95402780D01*
X234158575Y-95288446D01*
X234158581Y-95288442D01*
X234260697Y-95214250D01*
X234260698Y-95214250D01*
X233644025Y-94597578D01*
X233675258Y-94584641D01*
X233798097Y-94502563D01*
X233902563Y-94398097D01*
X233984641Y-94275258D01*
X233997578Y-94244025D01*
X234614250Y-94860698D01*
X234614250Y-94860697D01*
X234688442Y-94758581D01*
X234688446Y-94758575D01*
X234802780Y-94534184D01*
X234880602Y-94294669D01*
X234920000Y-94045928D01*
X234920000Y-93794071D01*
X234880602Y-93545330D01*
X234802780Y-93305815D01*
X234739079Y-93180795D01*
X234726183Y-93112126D01*
X234752459Y-93047385D01*
X234809566Y-93007128D01*
X234849564Y-93000500D01*
X237699903Y-93000500D01*
X237766942Y-93020185D01*
X237787584Y-93036819D01*
X238665425Y-93914660D01*
X238698910Y-93975983D01*
X238699361Y-93978149D01*
X238730261Y-94133491D01*
X238730264Y-94133501D01*
X238790602Y-94279172D01*
X238790609Y-94279185D01*
X238878210Y-94410288D01*
X238878213Y-94410292D01*
X238989707Y-94521786D01*
X238989711Y-94521789D01*
X239120814Y-94609390D01*
X239120827Y-94609397D01*
X239266498Y-94669735D01*
X239266503Y-94669737D01*
X239370463Y-94690416D01*
X239421153Y-94700499D01*
X239421156Y-94700500D01*
X239421158Y-94700500D01*
X239578844Y-94700500D01*
X239578845Y-94700499D01*
X239733497Y-94669737D01*
X239879179Y-94609394D01*
X240010289Y-94521789D01*
X240121789Y-94410289D01*
X240209394Y-94279179D01*
X240269737Y-94133497D01*
X240300500Y-93978842D01*
X240300500Y-93821158D01*
X240300500Y-93821155D01*
X240300499Y-93821153D01*
X240276645Y-93701233D01*
X240269737Y-93666503D01*
X240269008Y-93664742D01*
X240209397Y-93520827D01*
X240209390Y-93520814D01*
X240121789Y-93389711D01*
X240121786Y-93389707D01*
X240010292Y-93278213D01*
X240010288Y-93278210D01*
X239879185Y-93190609D01*
X239879172Y-93190602D01*
X239733501Y-93130264D01*
X239733491Y-93130261D01*
X239578149Y-93099361D01*
X239516238Y-93066976D01*
X239514660Y-93065425D01*
X238487590Y-92038355D01*
X238487588Y-92038352D01*
X238368717Y-91919481D01*
X238368716Y-91919480D01*
X238281904Y-91869360D01*
X238281904Y-91869359D01*
X238281900Y-91869358D01*
X238231785Y-91840423D01*
X238079057Y-91799499D01*
X237920943Y-91799499D01*
X237913347Y-91799499D01*
X237913331Y-91799500D01*
X231224500Y-91799500D01*
X231157461Y-91779815D01*
X231111706Y-91727011D01*
X231100500Y-91675500D01*
X231100500Y-91521155D01*
X231100499Y-91521153D01*
X231070045Y-91368053D01*
X231069737Y-91366503D01*
X231032971Y-91277741D01*
X231009397Y-91220827D01*
X231009390Y-91220814D01*
X230921789Y-91089711D01*
X230921786Y-91089707D01*
X230810292Y-90978213D01*
X230810288Y-90978210D01*
X230679185Y-90890609D01*
X230679172Y-90890602D01*
X230533501Y-90830264D01*
X230533489Y-90830261D01*
X230378845Y-90799500D01*
X230378842Y-90799500D01*
X230221158Y-90799500D01*
X230221155Y-90799500D01*
X230066510Y-90830261D01*
X230066498Y-90830264D01*
X229920827Y-90890602D01*
X229920814Y-90890609D01*
X229789125Y-90978602D01*
X229722447Y-90999480D01*
X229720234Y-90999500D01*
X187986670Y-90999500D01*
X187986654Y-90999499D01*
X187979058Y-90999499D01*
X187820943Y-90999499D01*
X187744579Y-91019961D01*
X187668214Y-91040423D01*
X187668209Y-91040426D01*
X187531290Y-91119475D01*
X187531282Y-91119481D01*
X185609481Y-93041282D01*
X185609479Y-93041285D01*
X185595542Y-93065425D01*
X185570157Y-93109394D01*
X185530423Y-93178215D01*
X185489499Y-93330943D01*
X185489499Y-93330945D01*
X185489499Y-93499046D01*
X185489500Y-93499059D01*
X185489500Y-94993699D01*
X185469815Y-95060738D01*
X185421795Y-95104184D01*
X185251151Y-95191132D01*
X185047350Y-95339201D01*
X185047345Y-95339205D01*
X184869205Y-95517345D01*
X184869201Y-95517350D01*
X184721132Y-95721151D01*
X184606760Y-95945616D01*
X184593894Y-95985214D01*
X184528910Y-96185215D01*
X184489500Y-96434038D01*
X184489500Y-96685962D01*
X184505663Y-96788008D01*
X184528910Y-96934785D01*
X184606760Y-97174383D01*
X184679689Y-97317512D01*
X184704197Y-97365613D01*
X184721132Y-97398848D01*
X184869201Y-97602649D01*
X184869205Y-97602654D01*
X184869207Y-97602656D01*
X185047344Y-97780793D01*
X185047345Y-97780794D01*
X185047344Y-97780794D01*
X185053661Y-97785383D01*
X185096327Y-97840714D01*
X185102305Y-97910327D01*
X185069699Y-97972122D01*
X185008860Y-98006479D01*
X184961378Y-98008174D01*
X184906611Y-97999500D01*
X184733389Y-97999500D01*
X184693728Y-98005781D01*
X184562302Y-98026597D01*
X184397552Y-98080128D01*
X184243211Y-98158768D01*
X184186289Y-98200125D01*
X184103072Y-98260586D01*
X184103070Y-98260588D01*
X184103069Y-98260588D01*
X183980588Y-98383069D01*
X183980588Y-98383070D01*
X183980586Y-98383072D01*
X183936859Y-98443256D01*
X183878768Y-98523211D01*
X183800128Y-98677552D01*
X183746597Y-98842302D01*
X183719500Y-99013389D01*
X180100500Y-99013389D01*
X180100500Y-87901973D01*
X242434500Y-87901973D01*
X242434500Y-88828010D01*
X242434501Y-88828029D01*
X242440687Y-88906643D01*
X242471747Y-89022562D01*
X242489680Y-89089488D01*
X242489715Y-89089556D01*
X242575614Y-89258146D01*
X242575679Y-89258226D01*
X242694743Y-89405257D01*
X242841851Y-89524383D01*
X242841855Y-89524386D01*
X242842114Y-89524518D01*
X242842237Y-89524634D01*
X242847304Y-89527925D01*
X242846702Y-89528851D01*
X242892908Y-89572495D01*
X242909700Y-89640317D01*
X242887159Y-89706451D01*
X242846850Y-89741377D01*
X242847304Y-89742075D01*
X242842281Y-89745336D01*
X242842114Y-89745482D01*
X242841855Y-89745613D01*
X242694743Y-89864743D01*
X242575614Y-90011853D01*
X242489680Y-90180512D01*
X242440687Y-90363356D01*
X242440687Y-90363357D01*
X242434500Y-90441973D01*
X242434500Y-91368010D01*
X242434501Y-91368029D01*
X242440687Y-91446643D01*
X242460653Y-91521158D01*
X242489680Y-91629488D01*
X242511783Y-91672868D01*
X242575614Y-91798146D01*
X242609850Y-91840423D01*
X242694743Y-91945257D01*
X242841662Y-92064230D01*
X242841855Y-92064386D01*
X242842114Y-92064518D01*
X242842237Y-92064634D01*
X242847304Y-92067925D01*
X242846702Y-92068851D01*
X242892908Y-92112495D01*
X242909700Y-92180317D01*
X242887159Y-92246451D01*
X242846850Y-92281377D01*
X242847304Y-92282075D01*
X242842281Y-92285336D01*
X242842114Y-92285482D01*
X242841855Y-92285613D01*
X242694743Y-92404743D01*
X242575614Y-92551853D01*
X242489680Y-92720512D01*
X242440687Y-92903356D01*
X242440687Y-92903357D01*
X242434500Y-92981973D01*
X242434500Y-93908010D01*
X242434501Y-93908029D01*
X242440687Y-93986643D01*
X242469418Y-94093869D01*
X242489680Y-94169488D01*
X242511783Y-94212868D01*
X242575614Y-94338146D01*
X242605667Y-94375258D01*
X242694743Y-94485257D01*
X242841851Y-94604383D01*
X242841855Y-94604386D01*
X242842114Y-94604518D01*
X242842237Y-94604634D01*
X242847304Y-94607925D01*
X242846702Y-94608851D01*
X242892908Y-94652495D01*
X242909700Y-94720317D01*
X242887159Y-94786451D01*
X242846850Y-94821377D01*
X242847304Y-94822075D01*
X242842281Y-94825336D01*
X242842114Y-94825482D01*
X242841855Y-94825613D01*
X242694743Y-94944743D01*
X242575614Y-95091853D01*
X242489680Y-95260512D01*
X242440687Y-95443356D01*
X242440687Y-95443357D01*
X242434500Y-95521973D01*
X242434500Y-96448010D01*
X242434501Y-96448029D01*
X242440687Y-96526643D01*
X242456581Y-96585961D01*
X242489680Y-96709488D01*
X242510067Y-96749500D01*
X242575614Y-96878146D01*
X242621480Y-96934785D01*
X242694743Y-97025257D01*
X242841851Y-97144383D01*
X242841855Y-97144386D01*
X242842114Y-97144518D01*
X242842237Y-97144634D01*
X242847304Y-97147925D01*
X242846702Y-97148851D01*
X242892908Y-97192495D01*
X242909700Y-97260317D01*
X242887159Y-97326451D01*
X242846850Y-97361377D01*
X242847304Y-97362075D01*
X242842281Y-97365336D01*
X242842114Y-97365482D01*
X242841855Y-97365613D01*
X242694743Y-97484743D01*
X242575614Y-97631853D01*
X242489680Y-97800512D01*
X242440687Y-97983356D01*
X242440687Y-97983357D01*
X242434500Y-98061973D01*
X242434500Y-98988010D01*
X242434501Y-98988029D01*
X242440687Y-99066643D01*
X242462352Y-99147499D01*
X242489680Y-99249488D01*
X242489715Y-99249556D01*
X242575614Y-99418146D01*
X242623102Y-99476788D01*
X242694743Y-99565257D01*
X242832472Y-99676788D01*
X242841851Y-99684383D01*
X242842018Y-99684468D01*
X242842099Y-99684544D01*
X242847304Y-99687925D01*
X242846686Y-99688875D01*
X242892820Y-99732436D01*
X242909623Y-99800255D01*
X242887093Y-99866393D01*
X242846855Y-99901266D01*
X242847323Y-99901986D01*
X242842145Y-99905348D01*
X242842043Y-99905437D01*
X242841883Y-99905518D01*
X242841873Y-99905524D01*
X242694758Y-100024658D01*
X242575624Y-100171773D01*
X242575623Y-100171775D01*
X242489684Y-100340444D01*
X242440687Y-100523298D01*
X242434500Y-100601919D01*
X242434500Y-101528064D01*
X242434501Y-101528083D01*
X242440687Y-101606699D01*
X242440688Y-101606701D01*
X242440688Y-101606703D01*
X242489684Y-101789556D01*
X242519062Y-101847214D01*
X242575623Y-101958224D01*
X242575624Y-101958226D01*
X242641451Y-102039514D01*
X242694758Y-102105342D01*
X242776046Y-102171168D01*
X242841873Y-102224475D01*
X242841875Y-102224476D01*
X242841953Y-102224516D01*
X242841989Y-102224550D01*
X242847323Y-102228014D01*
X242846689Y-102228989D01*
X242892749Y-102272491D01*
X242909543Y-102340312D01*
X242887005Y-102406447D01*
X242846843Y-102441246D01*
X242847323Y-102441986D01*
X242842002Y-102445440D01*
X242841953Y-102445484D01*
X242841873Y-102445524D01*
X242694758Y-102564658D01*
X242575624Y-102711773D01*
X242575623Y-102711775D01*
X242489684Y-102880444D01*
X242440687Y-103063298D01*
X242434500Y-103141919D01*
X242434500Y-104068064D01*
X242434501Y-104068083D01*
X242440687Y-104146699D01*
X242440688Y-104146701D01*
X242440688Y-104146703D01*
X242489684Y-104329556D01*
X242519062Y-104387214D01*
X242575623Y-104498224D01*
X242575624Y-104498226D01*
X242641451Y-104579514D01*
X242694758Y-104645342D01*
X242776046Y-104711168D01*
X242841873Y-104764475D01*
X242841875Y-104764476D01*
X242841953Y-104764516D01*
X242841989Y-104764550D01*
X242847323Y-104768014D01*
X242846689Y-104768989D01*
X242892749Y-104812491D01*
X242909543Y-104880312D01*
X242887005Y-104946447D01*
X242846843Y-104981246D01*
X242847323Y-104981986D01*
X242842002Y-104985440D01*
X242841953Y-104985484D01*
X242841873Y-104985524D01*
X242694758Y-105104658D01*
X242575624Y-105251773D01*
X242575623Y-105251775D01*
X242489684Y-105420444D01*
X242440687Y-105603298D01*
X242434500Y-105681919D01*
X242434500Y-106608064D01*
X242434501Y-106608083D01*
X242440687Y-106686699D01*
X242440688Y-106686701D01*
X242440688Y-106686703D01*
X242489684Y-106869556D01*
X242510528Y-106910464D01*
X242575623Y-107038224D01*
X242575624Y-107038226D01*
X242635366Y-107112000D01*
X242694758Y-107185342D01*
X242776046Y-107251168D01*
X242841873Y-107304475D01*
X242841875Y-107304476D01*
X242841953Y-107304516D01*
X242841989Y-107304550D01*
X242847323Y-107308014D01*
X242846689Y-107308989D01*
X242892749Y-107352491D01*
X242909543Y-107420312D01*
X242887005Y-107486447D01*
X242846843Y-107521246D01*
X242847323Y-107521986D01*
X242842002Y-107525440D01*
X242841953Y-107525484D01*
X242841873Y-107525524D01*
X242694758Y-107644658D01*
X242575624Y-107791773D01*
X242575623Y-107791775D01*
X242489684Y-107960444D01*
X242440687Y-108143298D01*
X242434500Y-108221919D01*
X242434500Y-109148064D01*
X242434501Y-109148083D01*
X242440687Y-109226699D01*
X242440688Y-109226701D01*
X242440688Y-109226703D01*
X242489684Y-109409556D01*
X242504177Y-109438000D01*
X242575623Y-109578224D01*
X242575624Y-109578226D01*
X242615865Y-109627918D01*
X242694758Y-109725342D01*
X242776046Y-109791168D01*
X242841873Y-109844475D01*
X242841875Y-109844476D01*
X242897379Y-109872756D01*
X243010544Y-109930416D01*
X243193397Y-109979412D01*
X243272025Y-109985600D01*
X245197974Y-109985599D01*
X245276603Y-109979412D01*
X245459456Y-109930416D01*
X245628126Y-109844475D01*
X245775242Y-109725342D01*
X245854136Y-109627916D01*
X245911621Y-109588207D01*
X245981452Y-109585879D01*
X246041456Y-109621675D01*
X246072582Y-109684228D01*
X246074500Y-109705954D01*
X246074500Y-110458010D01*
X246074501Y-110458029D01*
X246080687Y-110536643D01*
X246088653Y-110566373D01*
X246129680Y-110719488D01*
X246141384Y-110742458D01*
X246215614Y-110888146D01*
X246255591Y-110937513D01*
X246334743Y-111035257D01*
X246441311Y-111121554D01*
X246481853Y-111154385D01*
X246565371Y-111196938D01*
X246650512Y-111240320D01*
X246833355Y-111289312D01*
X246911979Y-111295500D01*
X247838020Y-111295499D01*
X247916645Y-111289312D01*
X248099488Y-111240320D01*
X248228008Y-111174835D01*
X248268146Y-111154385D01*
X248268147Y-111154383D01*
X248268149Y-111154383D01*
X248415257Y-111035257D01*
X248534383Y-110888149D01*
X248539592Y-110877923D01*
X248587563Y-110827128D01*
X248655383Y-110810328D01*
X248721519Y-110832863D01*
X248760562Y-110877917D01*
X248767226Y-110890995D01*
X248767227Y-110890996D01*
X248767229Y-110890999D01*
X248885522Y-111037078D01*
X248991345Y-111122772D01*
X249031603Y-111155373D01*
X249141829Y-111211534D01*
X249199082Y-111240706D01*
X249380646Y-111289356D01*
X249458711Y-111295500D01*
X250371288Y-111295499D01*
X250449354Y-111289356D01*
X250630918Y-111240706D01*
X250745422Y-111182363D01*
X250798396Y-111155373D01*
X250798397Y-111155371D01*
X250798399Y-111155371D01*
X250944478Y-111037078D01*
X251062771Y-110890999D01*
X251074514Y-110867950D01*
X251122487Y-110817154D01*
X251190308Y-110800358D01*
X251256443Y-110822894D01*
X251295486Y-110867951D01*
X251307226Y-110890995D01*
X251307229Y-110890999D01*
X251425522Y-111037078D01*
X251531345Y-111122772D01*
X251571603Y-111155373D01*
X251681829Y-111211534D01*
X251739082Y-111240706D01*
X251920646Y-111289356D01*
X251998711Y-111295500D01*
X252911288Y-111295499D01*
X252989354Y-111289356D01*
X253170918Y-111240706D01*
X253285422Y-111182363D01*
X253338396Y-111155373D01*
X253338397Y-111155371D01*
X253338399Y-111155371D01*
X253484478Y-111037078D01*
X253602771Y-110890999D01*
X253614514Y-110867950D01*
X253662487Y-110817154D01*
X253730308Y-110800358D01*
X253796443Y-110822894D01*
X253835486Y-110867951D01*
X253847226Y-110890995D01*
X253847229Y-110890999D01*
X253965522Y-111037078D01*
X254071345Y-111122772D01*
X254111603Y-111155373D01*
X254221829Y-111211534D01*
X254279082Y-111240706D01*
X254460646Y-111289356D01*
X254538711Y-111295500D01*
X255451288Y-111295499D01*
X255529354Y-111289356D01*
X255710918Y-111240706D01*
X255825422Y-111182363D01*
X255878396Y-111155373D01*
X255878397Y-111155371D01*
X255878399Y-111155371D01*
X256024478Y-111037078D01*
X256142771Y-110890999D01*
X256154514Y-110867950D01*
X256202487Y-110817154D01*
X256270308Y-110800358D01*
X256336443Y-110822894D01*
X256375486Y-110867951D01*
X256387226Y-110890995D01*
X256387229Y-110890999D01*
X256505522Y-111037078D01*
X256611345Y-111122772D01*
X256651603Y-111155373D01*
X256761829Y-111211534D01*
X256819082Y-111240706D01*
X257000646Y-111289356D01*
X257078711Y-111295500D01*
X257991288Y-111295499D01*
X258069354Y-111289356D01*
X258250918Y-111240706D01*
X258365422Y-111182363D01*
X258418396Y-111155373D01*
X258418397Y-111155371D01*
X258418399Y-111155371D01*
X258564478Y-111037078D01*
X258682771Y-110890999D01*
X258682774Y-110890995D01*
X258711401Y-110834809D01*
X258768106Y-110723518D01*
X258816756Y-110541954D01*
X258822900Y-110463889D01*
X258822899Y-109690392D01*
X258842583Y-109623356D01*
X258895387Y-109577601D01*
X258964546Y-109567657D01*
X259028102Y-109596682D01*
X259043264Y-109612358D01*
X259134757Y-109725341D01*
X259281873Y-109844475D01*
X259281875Y-109844476D01*
X259337379Y-109872756D01*
X259450544Y-109930416D01*
X259633397Y-109979412D01*
X259712025Y-109985600D01*
X261637974Y-109985599D01*
X261716603Y-109979412D01*
X261899456Y-109930416D01*
X262068126Y-109844475D01*
X262215242Y-109725342D01*
X262334375Y-109578226D01*
X262420316Y-109409556D01*
X262469312Y-109226703D01*
X262475500Y-109148075D01*
X262475499Y-108221926D01*
X262469312Y-108143297D01*
X262420316Y-107960444D01*
X262356714Y-107835617D01*
X262334376Y-107791775D01*
X262334375Y-107791773D01*
X262276779Y-107720649D01*
X262215242Y-107644658D01*
X262131896Y-107577165D01*
X262068128Y-107525526D01*
X262068053Y-107525488D01*
X262068016Y-107525453D01*
X262062677Y-107521986D01*
X262063310Y-107521009D01*
X262017255Y-107477516D01*
X262000455Y-107409696D01*
X262022989Y-107343560D01*
X262063157Y-107308753D01*
X262062677Y-107308014D01*
X262068002Y-107304555D01*
X262068053Y-107304512D01*
X262068126Y-107304475D01*
X262215242Y-107185342D01*
X262334375Y-107038226D01*
X262420316Y-106869556D01*
X262469312Y-106686703D01*
X262475500Y-106608075D01*
X262475499Y-105681926D01*
X262469312Y-105603297D01*
X262420316Y-105420444D01*
X262334376Y-105251775D01*
X262334375Y-105251773D01*
X262281068Y-105185946D01*
X262215242Y-105104658D01*
X262131896Y-105037165D01*
X262068128Y-104985526D01*
X262068053Y-104985488D01*
X262068016Y-104985453D01*
X262062677Y-104981986D01*
X262063310Y-104981009D01*
X262017255Y-104937516D01*
X262000455Y-104869696D01*
X262022989Y-104803560D01*
X262063157Y-104768753D01*
X262062677Y-104768014D01*
X262068002Y-104764555D01*
X262068053Y-104764512D01*
X262068126Y-104764475D01*
X262215242Y-104645342D01*
X262334375Y-104498226D01*
X262420316Y-104329556D01*
X262469312Y-104146703D01*
X262475500Y-104068075D01*
X262475499Y-103141926D01*
X262469312Y-103063297D01*
X262420316Y-102880444D01*
X262334376Y-102711775D01*
X262334375Y-102711773D01*
X262281068Y-102645946D01*
X262215242Y-102564658D01*
X262131896Y-102497165D01*
X262068128Y-102445526D01*
X262068053Y-102445488D01*
X262068016Y-102445453D01*
X262062677Y-102441986D01*
X262063310Y-102441009D01*
X262017255Y-102397516D01*
X262000455Y-102329696D01*
X262022989Y-102263560D01*
X262063157Y-102228753D01*
X262062677Y-102228014D01*
X262068002Y-102224555D01*
X262068053Y-102224512D01*
X262068126Y-102224475D01*
X262215242Y-102105342D01*
X262334375Y-101958226D01*
X262420316Y-101789556D01*
X262469312Y-101606703D01*
X262475500Y-101528075D01*
X262475499Y-100601926D01*
X262469312Y-100523297D01*
X262420316Y-100340444D01*
X262334376Y-100171775D01*
X262334375Y-100171773D01*
X262228663Y-100041232D01*
X262215242Y-100024658D01*
X262109975Y-99939414D01*
X262068128Y-99905526D01*
X262068053Y-99905488D01*
X262068016Y-99905453D01*
X262062677Y-99901986D01*
X262063310Y-99901009D01*
X262017255Y-99857516D01*
X262000455Y-99789696D01*
X262022989Y-99723560D01*
X262063157Y-99688753D01*
X262062677Y-99688014D01*
X262068002Y-99684555D01*
X262068053Y-99684512D01*
X262068126Y-99684475D01*
X262215242Y-99565342D01*
X262334375Y-99418226D01*
X262420316Y-99249556D01*
X262469312Y-99066703D01*
X262475500Y-98988075D01*
X262475499Y-98061926D01*
X262469312Y-97983297D01*
X262420316Y-97800444D01*
X262342136Y-97647006D01*
X262334376Y-97631775D01*
X262334375Y-97631773D01*
X262281068Y-97565946D01*
X262215242Y-97484658D01*
X262126702Y-97412959D01*
X262068128Y-97365526D01*
X262068053Y-97365488D01*
X262068016Y-97365453D01*
X262062677Y-97361986D01*
X262063310Y-97361009D01*
X262017255Y-97317516D01*
X262000455Y-97249696D01*
X262022989Y-97183560D01*
X262063157Y-97148753D01*
X262062677Y-97148014D01*
X262068002Y-97144555D01*
X262068053Y-97144512D01*
X262068126Y-97144475D01*
X262215242Y-97025342D01*
X262334375Y-96878226D01*
X262420316Y-96709556D01*
X262469312Y-96526703D01*
X262475500Y-96448075D01*
X262475499Y-95521926D01*
X262469312Y-95443297D01*
X262420316Y-95260444D01*
X262345827Y-95114250D01*
X262334376Y-95091775D01*
X262334375Y-95091773D01*
X262281068Y-95025946D01*
X262215242Y-94944658D01*
X262111560Y-94860697D01*
X262068128Y-94825526D01*
X262068053Y-94825488D01*
X262068016Y-94825453D01*
X262062677Y-94821986D01*
X262063310Y-94821009D01*
X262017255Y-94777516D01*
X262000455Y-94709696D01*
X262022989Y-94643560D01*
X262063157Y-94608753D01*
X262062677Y-94608014D01*
X262068002Y-94604555D01*
X262068053Y-94604512D01*
X262068126Y-94604475D01*
X262215242Y-94485342D01*
X262334375Y-94338226D01*
X262420316Y-94169556D01*
X262469312Y-93986703D01*
X262475500Y-93908075D01*
X262475499Y-92981926D01*
X262469312Y-92903297D01*
X262420316Y-92720444D01*
X262362656Y-92607279D01*
X262334376Y-92551775D01*
X262334375Y-92551773D01*
X262253220Y-92451557D01*
X262215242Y-92404658D01*
X262112129Y-92321158D01*
X262068126Y-92285524D01*
X262068123Y-92285522D01*
X262067486Y-92285198D01*
X262067184Y-92284912D01*
X262062677Y-92281986D01*
X262063212Y-92281161D01*
X262016695Y-92237218D01*
X261999907Y-92169395D01*
X262022452Y-92103263D01*
X262062844Y-92068271D01*
X262062404Y-92067593D01*
X262067290Y-92064419D01*
X262067513Y-92064227D01*
X262067855Y-92064052D01*
X262214886Y-91944986D01*
X262333953Y-91797954D01*
X262333955Y-91797951D01*
X262419848Y-91629374D01*
X262468816Y-91446622D01*
X262474999Y-91368053D01*
X262475000Y-91368040D01*
X262475000Y-91155000D01*
X260390686Y-91155000D01*
X260395080Y-91150606D01*
X260447741Y-91059394D01*
X260475000Y-90957661D01*
X260475000Y-90852339D01*
X260447741Y-90750606D01*
X260395080Y-90659394D01*
X260390686Y-90655000D01*
X262475000Y-90655000D01*
X262475000Y-90441959D01*
X262474999Y-90441946D01*
X262468816Y-90363377D01*
X262419848Y-90180625D01*
X262333955Y-90012048D01*
X262333953Y-90012045D01*
X262214886Y-89865013D01*
X262067854Y-89745946D01*
X262067851Y-89745944D01*
X262067499Y-89745765D01*
X262067331Y-89745607D01*
X262062404Y-89742407D01*
X262062989Y-89741505D01*
X262016702Y-89697791D01*
X261999907Y-89629970D01*
X262022444Y-89563835D01*
X262063075Y-89528627D01*
X262062677Y-89528014D01*
X262067094Y-89525145D01*
X262067500Y-89524794D01*
X262067814Y-89524634D01*
X262068126Y-89524475D01*
X262215242Y-89405342D01*
X262334375Y-89258226D01*
X262420316Y-89089556D01*
X262469312Y-88906703D01*
X262475500Y-88828075D01*
X262475499Y-87901926D01*
X262469312Y-87823297D01*
X262420316Y-87640444D01*
X262362656Y-87527279D01*
X262334376Y-87471775D01*
X262334375Y-87471773D01*
X262281068Y-87405946D01*
X262215242Y-87324658D01*
X262149414Y-87271351D01*
X262068126Y-87205524D01*
X262068124Y-87205523D01*
X261957114Y-87148962D01*
X261899456Y-87119584D01*
X261832524Y-87101649D01*
X261716601Y-87070587D01*
X261650349Y-87065373D01*
X261637975Y-87064400D01*
X261637973Y-87064400D01*
X259712035Y-87064400D01*
X259712016Y-87064401D01*
X259633400Y-87070587D01*
X259450544Y-87119584D01*
X259281875Y-87205523D01*
X259281873Y-87205524D01*
X259134758Y-87324658D01*
X259015624Y-87471773D01*
X259015623Y-87471775D01*
X258929684Y-87640444D01*
X258880687Y-87823298D01*
X258874500Y-87901919D01*
X258874500Y-88828064D01*
X258874501Y-88828083D01*
X258880687Y-88906699D01*
X258880688Y-88906701D01*
X258880688Y-88906703D01*
X258929684Y-89089556D01*
X258959062Y-89147214D01*
X259015623Y-89258224D01*
X259015624Y-89258226D01*
X259081451Y-89339514D01*
X259134758Y-89405342D01*
X259216046Y-89471168D01*
X259281873Y-89524475D01*
X259281877Y-89524477D01*
X259282506Y-89524798D01*
X259282803Y-89525079D01*
X259287323Y-89528014D01*
X259286786Y-89528840D01*
X259333300Y-89572775D01*
X259350092Y-89640596D01*
X259327551Y-89706730D01*
X259287157Y-89741731D01*
X259287596Y-89742407D01*
X259282737Y-89745561D01*
X259282508Y-89745761D01*
X259282151Y-89745942D01*
X259282145Y-89745946D01*
X259135113Y-89865013D01*
X259016046Y-90012045D01*
X259016044Y-90012048D01*
X258930151Y-90180625D01*
X258881183Y-90363377D01*
X258875000Y-90441946D01*
X258875000Y-90655000D01*
X259759314Y-90655000D01*
X259754920Y-90659394D01*
X259702259Y-90750606D01*
X259675000Y-90852339D01*
X259675000Y-90957661D01*
X259702259Y-91059394D01*
X259754920Y-91150606D01*
X259759314Y-91155000D01*
X258875000Y-91155000D01*
X258875000Y-91368053D01*
X258881183Y-91446622D01*
X258930151Y-91629374D01*
X259016044Y-91797951D01*
X259016046Y-91797954D01*
X259135113Y-91944986D01*
X259282143Y-92064052D01*
X259282493Y-92064230D01*
X259282659Y-92064387D01*
X259287596Y-92067593D01*
X259287009Y-92068495D01*
X259333293Y-92112201D01*
X259350093Y-92180021D01*
X259327559Y-92246158D01*
X259286926Y-92281375D01*
X259287323Y-92281986D01*
X259282929Y-92284839D01*
X259282520Y-92285194D01*
X259281882Y-92285518D01*
X259281873Y-92285524D01*
X259134758Y-92404658D01*
X259015624Y-92551773D01*
X259015623Y-92551775D01*
X258929684Y-92720444D01*
X258880687Y-92903298D01*
X258874500Y-92981919D01*
X258874500Y-93908064D01*
X258874501Y-93908083D01*
X258880687Y-93986699D01*
X258880688Y-93986701D01*
X258880688Y-93986703D01*
X258929684Y-94169556D01*
X258942480Y-94194669D01*
X259015623Y-94338224D01*
X259015624Y-94338226D01*
X259044232Y-94373553D01*
X259134758Y-94485342D01*
X259203709Y-94541178D01*
X259281873Y-94604475D01*
X259281875Y-94604476D01*
X259281953Y-94604516D01*
X259281989Y-94604550D01*
X259287323Y-94608014D01*
X259286689Y-94608989D01*
X259332749Y-94652491D01*
X259349543Y-94720312D01*
X259327005Y-94786447D01*
X259286843Y-94821246D01*
X259287323Y-94821986D01*
X259282002Y-94825440D01*
X259281953Y-94825484D01*
X259281873Y-94825524D01*
X259134758Y-94944658D01*
X259015624Y-95091773D01*
X259015623Y-95091775D01*
X258929684Y-95260444D01*
X258880687Y-95443298D01*
X258874500Y-95521919D01*
X258874500Y-96448064D01*
X258874501Y-96448083D01*
X258880687Y-96526699D01*
X258880688Y-96526701D01*
X258880688Y-96526703D01*
X258929684Y-96709556D01*
X258942539Y-96734785D01*
X259015623Y-96878224D01*
X259015624Y-96878226D01*
X259061426Y-96934785D01*
X259134758Y-97025342D01*
X259216046Y-97091168D01*
X259281873Y-97144475D01*
X259281875Y-97144476D01*
X259281953Y-97144516D01*
X259281989Y-97144550D01*
X259287323Y-97148014D01*
X259286689Y-97148989D01*
X259332749Y-97192491D01*
X259349543Y-97260312D01*
X259327005Y-97326447D01*
X259286843Y-97361246D01*
X259287323Y-97361986D01*
X259282002Y-97365440D01*
X259281953Y-97365484D01*
X259281873Y-97365524D01*
X259134758Y-97484658D01*
X259015624Y-97631773D01*
X259015623Y-97631775D01*
X258929684Y-97800444D01*
X258880687Y-97983298D01*
X258874500Y-98061919D01*
X258874500Y-98988064D01*
X258874501Y-98988083D01*
X258880687Y-99066699D01*
X258880688Y-99066701D01*
X258880688Y-99066703D01*
X258929684Y-99249556D01*
X258933832Y-99257697D01*
X259015623Y-99418224D01*
X259015624Y-99418226D01*
X259033253Y-99439995D01*
X259134758Y-99565342D01*
X259208370Y-99624952D01*
X259281873Y-99684475D01*
X259281875Y-99684476D01*
X259281953Y-99684516D01*
X259281989Y-99684550D01*
X259287323Y-99688014D01*
X259286689Y-99688989D01*
X259332749Y-99732491D01*
X259349543Y-99800312D01*
X259327005Y-99866447D01*
X259286843Y-99901246D01*
X259287323Y-99901986D01*
X259282002Y-99905440D01*
X259281953Y-99905484D01*
X259281873Y-99905524D01*
X259134758Y-100024658D01*
X259015624Y-100171773D01*
X259015623Y-100171775D01*
X258929684Y-100340444D01*
X258880687Y-100523298D01*
X258874500Y-100601919D01*
X258874500Y-101528064D01*
X258874501Y-101528083D01*
X258880687Y-101606699D01*
X258880688Y-101606701D01*
X258880688Y-101606703D01*
X258929684Y-101789556D01*
X258959062Y-101847214D01*
X259015623Y-101958224D01*
X259015624Y-101958226D01*
X259081451Y-102039514D01*
X259134758Y-102105342D01*
X259216046Y-102171168D01*
X259281873Y-102224475D01*
X259281875Y-102224476D01*
X259281953Y-102224516D01*
X259281989Y-102224550D01*
X259287323Y-102228014D01*
X259286689Y-102228989D01*
X259332749Y-102272491D01*
X259349543Y-102340312D01*
X259327005Y-102406447D01*
X259286843Y-102441246D01*
X259287323Y-102441986D01*
X259282002Y-102445440D01*
X259281953Y-102445484D01*
X259281873Y-102445524D01*
X259134758Y-102564658D01*
X259015624Y-102711773D01*
X259015623Y-102711775D01*
X258929684Y-102880444D01*
X258880687Y-103063298D01*
X258874500Y-103141919D01*
X258874500Y-104068064D01*
X258874501Y-104068083D01*
X258880687Y-104146699D01*
X258880688Y-104146701D01*
X258880688Y-104146703D01*
X258929684Y-104329556D01*
X258959062Y-104387214D01*
X259015623Y-104498224D01*
X259015624Y-104498226D01*
X259081451Y-104579514D01*
X259134758Y-104645342D01*
X259216046Y-104711168D01*
X259281873Y-104764475D01*
X259281875Y-104764476D01*
X259281953Y-104764516D01*
X259281989Y-104764550D01*
X259287323Y-104768014D01*
X259286689Y-104768989D01*
X259332749Y-104812491D01*
X259349543Y-104880312D01*
X259327005Y-104946447D01*
X259286843Y-104981246D01*
X259287323Y-104981986D01*
X259282002Y-104985440D01*
X259281953Y-104985484D01*
X259281873Y-104985524D01*
X259134758Y-105104658D01*
X259015624Y-105251773D01*
X259015623Y-105251775D01*
X258929684Y-105420444D01*
X258880687Y-105603298D01*
X258874500Y-105681919D01*
X258874500Y-106608064D01*
X258874501Y-106608083D01*
X258880687Y-106686699D01*
X258880688Y-106686701D01*
X258880688Y-106686703D01*
X258929684Y-106869556D01*
X258950528Y-106910464D01*
X259015623Y-107038224D01*
X259015624Y-107038226D01*
X259075366Y-107112000D01*
X259134758Y-107185342D01*
X259216046Y-107251168D01*
X259281873Y-107304475D01*
X259281875Y-107304476D01*
X259281953Y-107304516D01*
X259281989Y-107304550D01*
X259287323Y-107308014D01*
X259286689Y-107308989D01*
X259332749Y-107352491D01*
X259349543Y-107420312D01*
X259327005Y-107486447D01*
X259286843Y-107521246D01*
X259287323Y-107521986D01*
X259282002Y-107525440D01*
X259281953Y-107525484D01*
X259281873Y-107525524D01*
X259134758Y-107644658D01*
X259015624Y-107791773D01*
X259015623Y-107791775D01*
X258929684Y-107960443D01*
X258903364Y-108058669D01*
X258866998Y-108118329D01*
X258804151Y-108148857D01*
X258734775Y-108140562D01*
X258688727Y-108102540D01*
X258686861Y-108104052D01*
X258680255Y-108095894D01*
X258564478Y-107952922D01*
X258423854Y-107839046D01*
X258418396Y-107834626D01*
X258250916Y-107749293D01*
X258069351Y-107700643D01*
X257998579Y-107695073D01*
X257991289Y-107694500D01*
X257991288Y-107694500D01*
X257078721Y-107694500D01*
X257078702Y-107694501D01*
X257000647Y-107700643D01*
X256819083Y-107749293D01*
X256651603Y-107834626D01*
X256505522Y-107952922D01*
X256387226Y-108099003D01*
X256375485Y-108122049D01*
X256327511Y-108172845D01*
X256259690Y-108189641D01*
X256193555Y-108167104D01*
X256154515Y-108122049D01*
X256142773Y-108099003D01*
X256103051Y-108049951D01*
X256024478Y-107952922D01*
X255883854Y-107839046D01*
X255878396Y-107834626D01*
X255710916Y-107749293D01*
X255529351Y-107700643D01*
X255458579Y-107695073D01*
X255451289Y-107694500D01*
X255451288Y-107694500D01*
X254538721Y-107694500D01*
X254538702Y-107694501D01*
X254460647Y-107700643D01*
X254279083Y-107749293D01*
X254111603Y-107834626D01*
X253965522Y-107952922D01*
X253847226Y-108099003D01*
X253835485Y-108122049D01*
X253787511Y-108172845D01*
X253719690Y-108189641D01*
X253653555Y-108167104D01*
X253614515Y-108122049D01*
X253602773Y-108099003D01*
X253563051Y-108049951D01*
X253484478Y-107952922D01*
X253343854Y-107839046D01*
X253338396Y-107834626D01*
X253170916Y-107749293D01*
X252989351Y-107700643D01*
X252918579Y-107695073D01*
X252911289Y-107694500D01*
X252911288Y-107694500D01*
X251998721Y-107694500D01*
X251998702Y-107694501D01*
X251920647Y-107700643D01*
X251739083Y-107749293D01*
X251571603Y-107834626D01*
X251425522Y-107952922D01*
X251307226Y-108099003D01*
X251295485Y-108122049D01*
X251247511Y-108172845D01*
X251179690Y-108189641D01*
X251113555Y-108167104D01*
X251074515Y-108122049D01*
X251062773Y-108099003D01*
X251023051Y-108049951D01*
X250944478Y-107952922D01*
X250803854Y-107839046D01*
X250798396Y-107834626D01*
X250630916Y-107749293D01*
X250449351Y-107700643D01*
X250378579Y-107695073D01*
X250371289Y-107694500D01*
X250371288Y-107694500D01*
X249458721Y-107694500D01*
X249458702Y-107694501D01*
X249380647Y-107700643D01*
X249199083Y-107749293D01*
X249031603Y-107834626D01*
X248885522Y-107952922D01*
X248767227Y-108099003D01*
X248760561Y-108112085D01*
X248712584Y-108162878D01*
X248644762Y-108179670D01*
X248578628Y-108157129D01*
X248539593Y-108112076D01*
X248534384Y-108101853D01*
X248534383Y-108101851D01*
X248415257Y-107954743D01*
X248272400Y-107839059D01*
X248268146Y-107835614D01*
X248142868Y-107771783D01*
X248099488Y-107749680D01*
X248032562Y-107731747D01*
X247916643Y-107700687D01*
X247844736Y-107695028D01*
X247838021Y-107694500D01*
X247838020Y-107694500D01*
X246911989Y-107694500D01*
X246911970Y-107694501D01*
X246833356Y-107700687D01*
X246650512Y-107749680D01*
X246481853Y-107835614D01*
X246334743Y-107954743D01*
X246220440Y-108095894D01*
X246162952Y-108135606D01*
X246093121Y-108137933D01*
X246033118Y-108102137D01*
X246004300Y-108049953D01*
X245980316Y-107960444D01*
X245916714Y-107835617D01*
X245894376Y-107791775D01*
X245894375Y-107791773D01*
X245836779Y-107720649D01*
X245775242Y-107644658D01*
X245691896Y-107577165D01*
X245628128Y-107525526D01*
X245628053Y-107525488D01*
X245628016Y-107525453D01*
X245622677Y-107521986D01*
X245623310Y-107521009D01*
X245577255Y-107477516D01*
X245560455Y-107409696D01*
X245582989Y-107343560D01*
X245623157Y-107308753D01*
X245622677Y-107308014D01*
X245628002Y-107304555D01*
X245628053Y-107304512D01*
X245628126Y-107304475D01*
X245775242Y-107185342D01*
X245894375Y-107038226D01*
X245980316Y-106869556D01*
X246029312Y-106686703D01*
X246035500Y-106608075D01*
X246035499Y-105681926D01*
X246029312Y-105603297D01*
X245980316Y-105420444D01*
X245894376Y-105251775D01*
X245894375Y-105251773D01*
X245841068Y-105185946D01*
X245775242Y-105104658D01*
X245691896Y-105037165D01*
X245628128Y-104985526D01*
X245628053Y-104985488D01*
X245628016Y-104985453D01*
X245622677Y-104981986D01*
X245623310Y-104981009D01*
X245577255Y-104937516D01*
X245560455Y-104869696D01*
X245582989Y-104803560D01*
X245623157Y-104768753D01*
X245622677Y-104768014D01*
X245628002Y-104764555D01*
X245628053Y-104764512D01*
X245628126Y-104764475D01*
X245775242Y-104645342D01*
X245894375Y-104498226D01*
X245980316Y-104329556D01*
X246029312Y-104146703D01*
X246035500Y-104068075D01*
X246035499Y-103141926D01*
X246029312Y-103063297D01*
X245980316Y-102880444D01*
X245894376Y-102711775D01*
X245894375Y-102711773D01*
X245841068Y-102645946D01*
X245775242Y-102564658D01*
X245691896Y-102497165D01*
X245628128Y-102445526D01*
X245628053Y-102445488D01*
X245628016Y-102445453D01*
X245622677Y-102441986D01*
X245623310Y-102441009D01*
X245577255Y-102397516D01*
X245560455Y-102329696D01*
X245582989Y-102263560D01*
X245623157Y-102228753D01*
X245622677Y-102228014D01*
X245628002Y-102224555D01*
X245628053Y-102224512D01*
X245628126Y-102224475D01*
X245775242Y-102105342D01*
X245894375Y-101958226D01*
X245980316Y-101789556D01*
X246029312Y-101606703D01*
X246035500Y-101528075D01*
X246035499Y-100601926D01*
X246029312Y-100523297D01*
X245980316Y-100340444D01*
X245894376Y-100171775D01*
X245894375Y-100171773D01*
X245788663Y-100041232D01*
X245775242Y-100024658D01*
X245709414Y-99971351D01*
X245628126Y-99905524D01*
X245628122Y-99905522D01*
X245627963Y-99905441D01*
X245627887Y-99905369D01*
X245622677Y-99901986D01*
X245623295Y-99901032D01*
X245577169Y-99857465D01*
X245560377Y-99789643D01*
X245582918Y-99723509D01*
X245623162Y-99688644D01*
X245622696Y-99687925D01*
X245627876Y-99684560D01*
X245627985Y-99684466D01*
X245628149Y-99684383D01*
X245775257Y-99565257D01*
X245894383Y-99418149D01*
X245980320Y-99249488D01*
X246029312Y-99066645D01*
X246035500Y-98988021D01*
X246035499Y-98061980D01*
X246029312Y-97983355D01*
X245980320Y-97800512D01*
X245936938Y-97715371D01*
X245894385Y-97631853D01*
X245853037Y-97580793D01*
X245775257Y-97484743D01*
X245628149Y-97365617D01*
X245628148Y-97365616D01*
X245627892Y-97365486D01*
X245627768Y-97365369D01*
X245622696Y-97362075D01*
X245623298Y-97361147D01*
X245577095Y-97317512D01*
X245560299Y-97249691D01*
X245582835Y-97183556D01*
X245623149Y-97148623D01*
X245622696Y-97147925D01*
X245627724Y-97144659D01*
X245627892Y-97144514D01*
X245627972Y-97144473D01*
X245628149Y-97144383D01*
X245775257Y-97025257D01*
X245894383Y-96878149D01*
X245894838Y-96877257D01*
X245940312Y-96788008D01*
X245980320Y-96709488D01*
X246029312Y-96526645D01*
X246035500Y-96448021D01*
X246035499Y-95521980D01*
X246029312Y-95443355D01*
X245980320Y-95260512D01*
X245918509Y-95139201D01*
X245894385Y-95091853D01*
X245861554Y-95051311D01*
X245775257Y-94944743D01*
X245628149Y-94825617D01*
X245628148Y-94825616D01*
X245627892Y-94825486D01*
X245627768Y-94825369D01*
X245622696Y-94822075D01*
X245623298Y-94821147D01*
X245577095Y-94777512D01*
X245560299Y-94709691D01*
X245582835Y-94643556D01*
X245623149Y-94608623D01*
X245622696Y-94607925D01*
X245627724Y-94604659D01*
X245627892Y-94604514D01*
X245627972Y-94604473D01*
X245628149Y-94604383D01*
X245775257Y-94485257D01*
X245894383Y-94338149D01*
X245980320Y-94169488D01*
X246029312Y-93986645D01*
X246035500Y-93908021D01*
X246035499Y-92981980D01*
X246029312Y-92903355D01*
X245980320Y-92720512D01*
X245935980Y-92633489D01*
X245894385Y-92551853D01*
X245861554Y-92511311D01*
X245775257Y-92404743D01*
X245628149Y-92285617D01*
X245628148Y-92285616D01*
X245627892Y-92285486D01*
X245627768Y-92285369D01*
X245622696Y-92282075D01*
X245623298Y-92281147D01*
X245577095Y-92237512D01*
X245560299Y-92169691D01*
X245582835Y-92103556D01*
X245623149Y-92068623D01*
X245622696Y-92067925D01*
X245627724Y-92064659D01*
X245627892Y-92064514D01*
X245628078Y-92064419D01*
X245628149Y-92064383D01*
X245775257Y-91945257D01*
X245894383Y-91798149D01*
X245894483Y-91797954D01*
X245914835Y-91758008D01*
X245980320Y-91629488D01*
X246029312Y-91446645D01*
X246035500Y-91368021D01*
X246035499Y-90441980D01*
X246029312Y-90363355D01*
X245980320Y-90180512D01*
X245936938Y-90095371D01*
X245894385Y-90011853D01*
X245861554Y-89971311D01*
X245775257Y-89864743D01*
X245656130Y-89768275D01*
X245628148Y-89745616D01*
X245627892Y-89745486D01*
X245627768Y-89745369D01*
X245622696Y-89742075D01*
X245623298Y-89741147D01*
X245577095Y-89697512D01*
X245560299Y-89629691D01*
X245582835Y-89563556D01*
X245623149Y-89528623D01*
X245622696Y-89527925D01*
X245627724Y-89524659D01*
X245627892Y-89524514D01*
X245627915Y-89524501D01*
X245628149Y-89524383D01*
X245775257Y-89405257D01*
X245894383Y-89258149D01*
X245980320Y-89089488D01*
X246029312Y-88906645D01*
X246035500Y-88828021D01*
X246035499Y-87901980D01*
X246035498Y-87901973D01*
X246029312Y-87823356D01*
X246029297Y-87823300D01*
X245980320Y-87640512D01*
X245936938Y-87555371D01*
X245894385Y-87471853D01*
X245861554Y-87431311D01*
X245775257Y-87324743D01*
X245688958Y-87254859D01*
X245628146Y-87205614D01*
X245502868Y-87141783D01*
X245459488Y-87119680D01*
X245392562Y-87101747D01*
X245276643Y-87070687D01*
X245204736Y-87065028D01*
X245198021Y-87064500D01*
X245198020Y-87064500D01*
X243271989Y-87064500D01*
X243271970Y-87064501D01*
X243193356Y-87070687D01*
X243010512Y-87119680D01*
X242841853Y-87205614D01*
X242694743Y-87324743D01*
X242575614Y-87471853D01*
X242489680Y-87640512D01*
X242440687Y-87823356D01*
X242440687Y-87823357D01*
X242434500Y-87901973D01*
X180100500Y-87901973D01*
X180100500Y-83743098D01*
X180120185Y-83676059D01*
X180172989Y-83630304D01*
X180224500Y-83619098D01*
X263245476Y-83619098D01*
X263312515Y-83638783D01*
G37*
%TD.AperFunction*%
%TD*%
M02*
