M48
; DRILL file KiCad 10.0.1 date 2026-05-17T18:53:12
; FORMAT={-:-/ absolute / metric / decimal}
; #@! TF.CreationDate,2026-05-17T18:53:12+05:30
; #@! TF.GenerationSoftware,Kicad,Pcbnew,10.0.1
; #@! TF.FileFunction,MixedPlating,1,2
FMAT,2
METRIC
; #@! TA.AperFunction,Plated,PTH,ViaDrill
T1C0.300
; #@! TA.AperFunction,Plated,PTH,ComponentDrill
T2C0.800
; #@! TA.AperFunction,Plated,PTH,ComponentDrill
T3C1.500
; #@! TA.AperFunction,NonPlated,NPTH,ComponentDrill
T4C1.700
; #@! TA.AperFunction,NonPlated,NPTH,ComponentDrill
T5C4.000
%
G90
G05
T1
X222.7Y-92.4
X230.3Y-91.6
X238.2Y-107.7
X239.5Y-93.9
T2
X244.835Y-88.365
X244.835Y-90.905
X244.835Y-93.445
X244.835Y-95.985
X244.835Y-98.525
X244.835Y-101.065
X244.835Y-103.605
X244.835Y-106.145
X244.835Y-108.685
X247.375Y-108.895
X249.915Y-108.895
X252.455Y-108.895
X254.995Y-108.895
X257.535Y-108.895
X260.075Y-88.365
X260.075Y-90.905
X260.075Y-93.445
X260.075Y-95.985
X260.075Y-98.525
X260.075Y-101.065
X260.075Y-103.605
X260.075Y-106.145
X260.075Y-108.685
T3
X186.09Y-96.56
X192.44Y-94.02
X206.09Y-96.36
X212.44Y-93.82
X226.97Y-96.46
X233.32Y-93.92
T4
X184.82Y-99.1
X194.98Y-99.1
X204.82Y-98.9
X214.98Y-98.9
X225.7Y-99.0
X235.86Y-99.0
T5
X189.9Y-99.1
X209.9Y-98.9
X230.78Y-99.0
M30
